<svg width="46" height="46" viewBox="0 0 46 46" fill="none" xmlns="http://www.w3.org/2000/svg">
<path d="M44.0426 37.5872C43.2807 36.652 40.0049 34.8502 38.9276 34.2825C38.0323 31.1227 37.7142 28.1516 37.4229 22.7034C37.4255 22.6328 37.4293 22.5648 37.4319 22.4931C37.4255 22.4989 37.4191 22.5041 37.4127 22.5094C37.4106 22.4683 37.4084 22.4298 37.4058 22.3882L35.5751 23.9686C33.907 25.19 32.1547 26.1647 30.3053 26.6477L29.9569 30.7659C29.9569 35.8103 26.8509 38.105 23.0938 38.105C19.3581 38.105 16.2681 35.815 16.2585 30.7807L15.9074 25.5381C15.0835 24.5144 14.3637 23.0025 13.8478 21.7003C14.2896 13.2447 22.3928 14.4339 27.893 9.47871C32.5352 17.0645 32.461 20.5258 32.4013 21.8048C30.3277 23.0879 28.5258 23.391 25.917 23.4833C25.6476 22.9356 25.0841 22.5544 24.4262 22.5544C23.5079 22.5544 22.7635 23.2898 22.7635 24.1971C22.7635 25.1044 23.5079 25.8397 24.4262 25.8397C24.4833 25.8397 24.5377 25.8287 24.5937 25.8229C25.1999 25.7622 25.7105 25.3864 25.9464 24.8582C31.0672 24.67 33.6279 23.4169 37.4656 19.9297C37.4597 18.3462 37.3733 16.7667 37.1817 15.2016C36.1353 6.29313 31.2572 1.2691 23.1502 0.915527C14.976 1.27346 10.0819 6.26614 9.03258 15.2043C8.91252 16.1901 8.81701 17.9455 8.77379 18.8428C8.41841 26.1676 8.1671 30.5494 7.10741 34.2868C4.24783 35.7923 2.38078 37.0744 1.96838 37.6169C1.51803 38.2189 0.537227 41.0892 -0.00384521 45.9787H32.1886L46.0399 45.9792" fill="#FF9B04"/>
</svg>
