<svg width="35" height="50" viewBox="0 0 35 50" fill="none" xmlns="http://www.w3.org/2000/svg">
<path d="M25.2512 4.88736C25.2512 4.00892 24.5216 3.29182 23.6279 3.29182H20.8161C20.8161 1.49486 19.3405 0.0444336 17.5123 0.0444336C15.684 0.0444336 14.2084 1.49486 14.2084 3.29182H11.3966C10.5029 3.29182 9.77332 4.0089 9.77332 4.88736V8.64225H25.2516L25.2512 4.88736Z" fill="#FF9B04"/>
<path d="M9.46956 25.2573C8.08405 25.2573 6.95294 26.3613 6.95294 27.7231C6.95294 29.085 8.08444 30.1967 9.46956 30.1967C10.8551 30.1967 11.9783 29.0846 11.9783 27.7231C11.9783 26.3613 10.8551 25.2573 9.46956 25.2573ZM11.2075 27.449L9.4941 29.1409C9.33031 29.2941 9.12537 29.3746 8.91213 29.3746C8.70719 29.3746 8.49396 29.2941 8.33846 29.1409L7.47757 28.2947C7.1579 27.9805 7.1579 27.4727 7.47757 27.1584C7.79724 26.8442 8.31392 26.8442 8.63361 27.1584L8.91252 27.4326L10.0519 26.3126C10.3716 25.9984 10.8883 25.9984 11.208 26.3126C11.5276 26.6272 11.5276 27.1347 11.2075 27.449Z" fill="#FF9B04"/>
<path d="M9.46956 20.0683C10.8551 20.0683 11.9783 18.9562 11.9783 17.5947C11.9783 16.2411 10.8551 15.1289 9.46956 15.1289C8.08405 15.1289 6.95294 16.2411 6.95294 17.5947C6.95294 18.9565 8.08444 20.0683 9.46956 20.0683ZM7.47758 17.0309C7.79725 16.7167 8.31393 16.7167 8.63362 17.0309L8.91253 17.305L10.0519 16.1851C10.3716 15.8709 10.8883 15.8709 11.208 16.1851C11.5277 16.4993 11.5277 17.0149 11.208 17.3292L9.49456 19.0133C9.33076 19.1665 9.12582 19.247 8.91258 19.247C8.70765 19.247 8.49441 19.1665 8.33891 19.0133L7.47802 18.1671C7.15798 17.8526 7.15791 17.3451 7.47758 17.0309Z" fill="#FF9B04"/>
<path d="M9.46956 35.3853C8.08405 35.3853 6.95294 36.4892 6.95294 37.8511C6.95294 39.2129 8.08444 40.3169 9.46956 40.3169C10.8551 40.3169 11.9783 39.2129 11.9783 37.8511C11.9783 36.4892 10.8551 35.3853 9.46956 35.3853ZM10.9045 38.1252C11.2242 38.4394 11.2242 38.9473 10.9045 39.2615C10.7407 39.4225 10.5358 39.5034 10.3226 39.5034C10.1176 39.5034 9.90439 39.4229 9.74889 39.2615L9.46999 38.9874L9.19108 39.2615C9.02728 39.4225 8.81404 39.5034 8.60911 39.5034C8.39587 39.5034 8.19093 39.4229 8.02714 39.2615C7.70746 38.9473 7.70746 38.4395 8.02714 38.1252L8.30604 37.8511L8.02714 37.577C7.70746 37.2627 7.70746 36.7549 8.02714 36.4407C8.34681 36.1265 8.87142 36.1265 9.1911 36.4407L9.47 36.7148L9.74891 36.4407C10.0686 36.1265 10.5853 36.1265 10.905 36.4407C11.2246 36.7549 11.2246 37.2627 10.905 37.577L10.626 37.8511L10.9045 38.1252Z" fill="#FF9B04"/>
<path d="M8.13334 9.44824H4.08368V46.0066H30.9397L30.9393 9.44824H26.8897V10.254H8.13316L8.13334 9.44824ZM9.46938 41.9288C7.17392 41.9288 5.31286 40.0995 5.31286 37.8515C5.31286 35.6034 7.17392 33.7742 9.46938 33.7742C11.7565 33.7742 13.6176 35.6034 13.6176 37.8515C13.6176 40.0995 11.7569 41.9288 9.46938 41.9288ZM9.46938 31.8082C7.17392 31.8082 5.31286 29.9711 5.31286 27.7227C5.31286 25.4746 7.17392 23.6454 9.46938 23.6454C11.7565 23.6454 13.6176 25.4746 13.6176 27.7227C13.6176 29.9711 11.7569 31.8082 9.46938 31.8082ZM15.2574 15.5964H28.8902C29.3413 15.5964 29.71 15.9588 29.71 16.4021C29.71 16.8532 29.3413 17.2079 28.8902 17.2079H15.2574C14.7985 17.2079 14.4376 16.8532 14.4376 16.4021C14.4376 15.9592 14.7981 15.5964 15.2574 15.5964ZM15.2574 17.9895H25.9308C26.3898 17.9895 26.7506 18.3441 26.7506 18.7952C26.7506 19.2385 26.3898 19.6009 25.9308 19.6009L15.2574 19.6013C14.7985 19.6013 14.4376 19.2389 14.4376 18.7956C14.4376 18.3441 14.7981 17.9895 15.2574 17.9895ZM15.2574 25.7252H28.8902C29.3413 25.7252 29.71 26.0876 29.71 26.5309C29.71 26.9742 29.3413 27.3366 28.8902 27.3366H15.2574C14.7985 27.3366 14.4376 26.9742 14.4376 26.5309C14.4376 26.0876 14.7981 25.7252 15.2574 25.7252ZM15.2574 28.1101H25.9308C26.3898 28.1101 26.7506 28.4725 26.7506 28.9158C26.7506 29.3669 26.3898 29.7215 25.9308 29.7215H15.2574C14.7985 29.7215 14.4376 29.3669 14.4376 28.9158C14.4376 28.4729 14.7981 28.1101 15.2574 28.1101ZM15.2574 35.8536H28.8902C29.3413 35.8536 29.71 36.216 29.71 36.6593C29.71 37.1026 29.3413 37.465 28.8902 37.465L15.2574 37.4654C14.7985 37.4654 14.4376 37.103 14.4376 36.6597C14.4376 36.2164 14.7981 35.8536 15.2574 35.8536ZM15.2574 38.2388H25.9308C26.3898 38.2388 26.7506 38.6013 26.7506 39.0446C26.7506 39.4879 26.3898 39.8503 25.9308 39.8503H15.2574C14.7985 39.8503 14.4376 39.4879 14.4376 39.0446C14.4376 38.6013 14.7981 38.2388 15.2574 38.2388ZM9.46938 13.5171C11.7565 13.5171 13.6176 15.3463 13.6176 17.5944C13.6176 19.8506 11.7565 21.6799 9.46938 21.6799C7.17392 21.6799 5.31286 19.8506 5.31286 17.5944C5.31324 15.3463 7.17431 13.5171 9.46938 13.5171Z" fill="#FF9B04"/>
<path d="M33.3672 5.44288H26.8907V7.83595H31.7601C32.2111 7.83595 32.5799 8.19838 32.5799 8.64168V46.8117C32.5799 47.255 32.2111 47.6174 31.7601 47.6174L3.26445 47.6178C2.81344 47.6178 2.4447 47.2553 2.4447 46.812L2.44433 8.64205C2.44433 8.19875 2.81306 7.83632 3.26408 7.83632H8.13345L8.13383 5.44287H1.6574C0.747449 5.44287 0.0178833 6.1681 0.0178833 7.05436V48.3915C0.0178833 49.2859 0.74743 50.003 1.6574 50.003H33.3675C34.2775 50.003 35.0071 49.2859 35.0071 48.3915V7.05531C35.0071 6.16871 34.2775 5.44344 33.3675 5.44344L33.3672 5.44288Z" fill="#FF9B04"/>
</svg>
