<svg width="44" height="50" viewBox="0 0 44 50" fill="none" xmlns="http://www.w3.org/2000/svg">
<path d="M24.5279 36.8477V32.1664C24.5279 29.6696 26.5726 27.7192 29.0102 27.7192H40.648V22.5698C40.648 20.6193 39.0753 19.0586 37.1091 19.0586L3.53103 19.059C1.56519 19.059 -0.00787354 20.6193 -0.00787354 22.5701V46.5223C-0.00787354 48.4727 1.56482 50.0335 3.53103 50.0335H37.1879C39.1538 50.0335 40.7268 48.4731 40.7268 46.5223V41.3729H29.088C26.5716 41.2946 24.5271 39.3442 24.5271 36.8474L24.5279 36.8477Z" fill="#FF9B04"/>
<path d="M42.379 29.2021H29.0896C27.4384 29.2021 26.1799 30.5287 26.1799 32.089V36.7704C26.1799 38.4087 27.5169 39.6573 29.0896 39.6573H42.4578C43.3227 39.6573 44.0305 38.9551 44.0305 38.097V30.685C43.9519 29.9045 43.3227 29.2022 42.3793 29.2022L42.379 29.2021ZM32.3918 37.0825C30.9763 37.0825 29.7967 35.9122 29.7967 34.5078C29.7967 33.1034 30.9763 31.9331 32.3918 31.9331C33.8073 31.9331 34.9868 33.1034 34.9868 34.5078C34.9083 35.9122 33.8073 37.0825 32.3918 37.0825Z" fill="#FF9B04"/>
<path d="M24.0561 1.27019L23.2698 0.645905C22.0117 -0.290554 20.2816 -0.134269 19.2592 1.11393L6.1264 17.4983H10.8448L24.0561 1.27019Z" fill="#FF9B04"/>
<path d="M17.372 17.499L28.0664 4.39099L25.5503 2.3623L13.2822 17.4989L17.372 17.499Z" fill="#FF9B04"/>
<path d="M35.9303 17.4988L37.503 15.4701C38.4469 14.2219 38.2893 12.5053 37.0313 11.4909L29.4822 5.4834L19.8091 17.499L35.9303 17.4988Z" fill="#FF9B04"/>
</svg>
