<svg width="50" height="50" viewBox="0 0 50 50" fill="none" xmlns="http://www.w3.org/2000/svg">
<g clip-path="url(#clip0_47_157)">
<path d="M16.9307 26.8951H18.4405V6.10938H16.3579V26.9574C16.5453 26.9156 16.7327 26.8949 16.9307 26.8949L16.9307 26.8951Z" fill="#FF9B04"/>
<path d="M34.1758 26.8954C34.3737 26.8954 34.5717 26.9161 34.7591 26.9578V6.10986H32.6765V26.8955L34.1758 26.8954Z" fill="#FF9B04"/>
<path d="M32.5096 2.53212C32.1591 2.88261 32.1591 3.45066 32.5096 3.80111C32.1591 4.1516 32.1591 4.72002 32.5096 5.07048H34.9242C35.2747 4.71999 35.2747 4.15194 34.9242 3.80111C35.2747 3.45063 35.2747 2.88257 34.9242 2.53212C35.2747 2.18163 35.2747 1.61358 34.9242 1.26313C35.2747 0.912644 35.2747 0.344592 34.9242 -0.00585938H32.5092C32.1587 0.344629 32.1587 0.912681 32.5092 1.26313C32.1591 1.61362 32.1591 2.18167 32.5096 2.53212Z" fill="#FF9B04"/>
<path d="M16.1888 2.532C15.8383 2.88249 15.8383 3.45054 16.1888 3.80099C15.8383 4.15148 15.8383 4.71989 16.1888 5.07035H18.6034C18.9539 4.71986 18.9539 4.15181 18.6034 3.80099C18.9539 3.4505 18.9539 2.88245 18.6034 2.532C18.9539 2.18151 18.9539 1.61346 18.6034 1.26301C18.9539 0.912519 18.9539 0.344466 18.6034 -0.00598454L16.1888 -0.00634766C15.8383 0.34414 15.8383 0.912193 16.1891 1.26264C15.8383 1.61349 15.8383 2.18154 16.1888 2.532Z" fill="#FF9B04"/>
<path d="M48.3282 31.1334H43.8295V33.1953H38.2166V31.1334H37.1957V36.8818C37.2374 35.8819 38.0601 35.0904 39.0701 35.0904H42.9753C44.0166 35.0904 44.8603 35.9338 44.8603 36.9754C44.8603 38.0065 44.0166 38.8499 42.9753 38.8499H39.0701C38.0601 38.8499 37.2374 38.0585 37.1957 37.0691V48.0036C37.1957 48.7638 36.9145 49.4509 36.4562 49.9823H48.3279C49.2548 49.9823 50.0044 49.2221 50.0044 48.3058V32.8097C50.0048 31.8828 49.2547 31.1328 48.3282 31.1328L48.3282 31.1334Z" fill="#FF9B04"/>
<path d="M37.1854 36.976C37.1854 37.0073 37.1854 37.0385 37.196 37.0697V36.8823C37.1854 36.9136 37.1854 36.9448 37.1854 36.976Z" fill="#FF9B04"/>
<path d="M39.0665 37.8072H42.9812C43.445 37.8072 43.8234 37.436 43.8234 36.9722C43.8234 36.5083 43.4453 36.1299 42.9812 36.1299H39.0665C38.6027 36.1299 38.2242 36.508 38.2242 36.9722C38.2242 37.436 38.6023 37.8072 39.0665 37.8072Z" fill="#FF9B04"/>
<path d="M13.9107 31.1333H11.8071V33.1952H6.18362V31.1333H1.6952C0.768301 31.1333 0.0186768 31.883 0.0186768 32.8098V48.3059C0.0186768 49.2222 0.768329 49.9824 1.6952 49.9824H14.6501C14.1917 49.4514 13.9106 48.7639 13.9106 48.0037L13.9107 31.1333ZM10.9531 38.8499H7.03746C6.00631 38.8499 5.16298 38.0062 5.16298 36.9754C5.16298 35.9341 6.00634 35.0904 7.03746 35.0904L10.9531 35.0908C11.9944 35.0908 12.8381 35.9342 12.8381 36.9758C12.8381 38.0066 11.9944 38.8499 10.9531 38.8499Z" fill="#FF9B04"/>
<path d="M10.9567 36.1299H7.0421C6.57829 36.1299 6.19983 36.508 6.19983 36.9722C6.19983 37.436 6.57792 37.8072 7.0421 37.8072H10.9567C11.4206 37.8072 11.799 37.436 11.799 36.9722C11.7986 36.5083 11.4206 36.1299 10.9567 36.1299Z" fill="#FF9B04"/>
<path d="M34.1758 27.9365H29.9165V31.4145H21.2003V27.9365H16.9305C15.8475 27.9365 14.9518 28.8216 14.9518 29.9152V48.0036C14.9518 49.0866 15.8474 49.9823 16.9305 49.9823H21.2003V46.4937H29.9165V49.9823H34.1758C35.2694 49.9823 36.1545 49.0866 36.1545 48.0036V29.9152C36.1545 28.8216 35.2694 27.9365 34.1758 27.9365ZM27.8651 36.6632H23.2517C22.1269 36.6632 21.2105 35.7468 21.2105 34.6325C21.2105 33.5076 22.1269 32.6018 23.2517 32.6018H27.8651C28.99 32.6018 29.9063 33.5076 29.9063 34.6325C29.9063 35.7468 28.99 36.6632 27.8651 36.6632Z" fill="#FF9B04"/>
<path d="M27.8662 33.6406H23.2484C22.7011 33.6406 22.255 34.087 22.255 34.634C22.255 35.1814 22.7014 35.6191 23.2484 35.6191H27.8662C28.4135 35.6191 28.8596 35.1814 28.8596 34.634C28.8599 34.087 28.4135 33.6406 27.8662 33.6406Z" fill="#FF9B04"/>
<path d="M22.2417 27.9321H28.8734V30.3692H22.2417V27.9321Z" fill="#FF9B04"/>
<path d="M22.2417 47.5396H28.8734V49.9766H22.2417V47.5396Z" fill="#FF9B04"/>
</g>
<defs>
<clipPath id="clip0_47_157">
<rect width="50" height="50" fill="white"/>
</clipPath>
</defs>
</svg>
