<svg width="50" height="39" viewBox="0 0 50 39" fill="none" xmlns="http://www.w3.org/2000/svg">
<g clip-path="url(#clip0_47_142)">
<path d="M12.7104 22.4219V26.7875C10.1604 27.5499 9.73035 27.2399 -0.0045681 28.0081V21.915C2.99478 23.0324 9.44127 22.6911 12.7104 22.4219Z" fill="#FF9B04"/>
<path d="M-0.00463676 29.0426V36.0148C-0.00463676 36.0148 9.43004 34.0701 11.5342 35.746L16.335 38.5699C17.8166 39.4304 19.5243 38.7669 20.157 37.8664C20.157 37.8664 21.4899 38.3938 22.573 37.6181C22.6772 37.6286 26.3129 39.0317 26.5718 37.432C26.5718 37.432 31.5495 37.3804 31.6745 36.4181C31.6745 36.4181 32.0598 35.1665 27.9462 35.1665L21.4168 31.0596C21.4168 31.0596 21.0002 29.7871 21.844 30.0043C21.844 30.0043 27.6131 32.3527 28.5818 30.4802C28.5818 30.4802 29.1338 29.4559 27.072 28.7938C26.1349 28.6181 20.6051 25.4215 13.4197 27.6663C10.4825 28.577 9.97219 28.2977 -0.00475121 29.0424L-0.00463676 29.0426Z" fill="#FF9B04"/>
<path d="M12.4064 2.07557C12.4064 0.932953 13.3387 0.00683594 14.4889 0.00683594H47.8985C49.0488 0.00683594 49.9811 0.932953 49.9811 2.07557V6.67457H12.406L12.4064 2.07557Z" fill="#FF9B04"/>
<path d="M24.8638 32.0016C26.5738 32.3732 28.6818 32.4894 29.5084 30.9568C30.0144 29.9516 29.5709 28.5063 27.3946 27.8121C25.4268 26.9239 21.7893 25.8364 18.9178 25.8364C18.0639 25.8364 15.9708 25.9089 13.7527 26.4985V7.71289H48.6388V32.7883C48.6388 34.1124 47.5452 35.1988 46.2122 35.1988H32.2373C31.5814 34.5057 30.3003 34.1745 28.2489 34.1435L24.8638 32.0016ZM33.4241 30.574C33.4241 31.2154 33.9449 31.7325 34.5802 31.7325H43.9842C44.63 31.7325 45.1508 31.2151 45.1508 30.574V24.8432C45.1508 24.2017 44.63 23.6847 43.9842 23.6847H34.5802C33.945 23.6847 33.4241 24.202 33.4241 24.8432V30.574Z" fill="#FF9B04"/>
<path d="M43.5287 25.8301H35.0385V26.9853H43.5287V25.8301Z" fill="#FF9B04"/>
<path d="M43.5287 28.4346H35.0385V29.5898H43.5287V28.4346Z" fill="#FF9B04"/>
</g>
<defs>
<clipPath id="clip0_47_142">
<rect width="50" height="39" fill="white" transform="matrix(-1 0 0 1 50 0)"/>
</clipPath>
</defs>
</svg>
