<svg width="8" height="14" viewBox="0 0 8 14" fill="none" xmlns="http://www.w3.org/2000/svg">
<path d="M0.765625 13.3701C0.598958 13.1951 0.515625 12.9879 0.515625 12.7485C0.515625 12.5091 0.598958 12.3021 0.765625 12.1276L5.64896 7.0001L0.748958 1.8551C0.593403 1.69176 0.515625 1.4876 0.515625 1.2426C0.515625 0.997598 0.598958 0.787598 0.765625 0.612598C0.932292 0.437598 1.12962 0.350098 1.35762 0.350098C1.58562 0.350098 1.78274 0.437598 1.94896 0.612598L7.54896 6.5101C7.61563 6.5801 7.66296 6.65593 7.69096 6.7376C7.71896 6.81926 7.73274 6.90676 7.73229 7.0001C7.73229 7.09343 7.71829 7.18093 7.69029 7.2626C7.66229 7.34426 7.61518 7.4201 7.54896 7.4901L1.93229 13.3876C1.77674 13.5509 1.58496 13.6326 1.35696 13.6326C1.12896 13.6326 0.931847 13.5451 0.765625 13.3701Z" fill="#FF9B04"/>
</svg>
