<svg width="22" height="22" viewBox="0 0 22 22" fill="none" xmlns="http://www.w3.org/2000/svg">
<path d="M21.0589 4.05197H7.06826C6.73311 4.05197 6.53545 4.2883 6.62139 4.63635L8.64092 11.5844C8.68389 11.7649 8.86436 11.8981 9.0878 11.8981H19.0866C19.3101 11.8981 19.4905 11.7649 19.5335 11.5844L21.5058 4.63635C21.5831 4.40861 21.4628 4.05197 21.0589 4.05197ZM18.773 10.9571H9.44444L9.04053 9.56917H19.1769L18.773 10.9571ZM19.4003 8.66683H8.75694L8.35733 7.27893H19.8042L19.4003 8.66683ZM20.0706 6.33791H8.09951L7.69561 4.95002H20.4788L20.0706 6.33791Z" fill="#222222" stroke="#222222" stroke-width="0.2"/>
<path d="M4.60195 1.04414C4.55898 0.820703 4.37852 0.6875 4.15508 0.6875H0.472656V1.58555H3.78984L6.84062 13.8703C6.88359 14.0938 7.06406 14.227 7.2875 14.227H19.1254V13.2859H7.64844L4.60195 1.04414Z" fill="#222222" stroke="#222222" stroke-width="0.2"/>
<path d="M17.7419 15.6191H7.29187V16.5172H17.7419V15.6191Z" fill="#222222" stroke="#222222" stroke-width="0.2"/>
<path d="M17.2005 17.7246C16.2122 17.7246 15.4087 18.5324 15.4087 19.5164C15.4087 20.5047 16.2165 21.3082 17.2005 21.3082C18.1845 21.3082 18.9923 20.5004 18.9923 19.5164C18.9966 18.5324 18.1888 17.7246 17.2005 17.7246ZM17.2005 20.3715C16.7536 20.3715 16.3497 19.9676 16.3497 19.5207C16.3497 19.0738 16.7063 18.6699 17.2005 18.6699C17.6946 18.6699 18.0513 19.0738 18.0513 19.5207C18.0556 19.9676 17.6517 20.3715 17.2005 20.3715Z" fill="#222222" stroke="#222222" stroke-width="0.2"/>
<path d="M8.50359 17.7246C7.51531 17.7246 6.71179 18.5324 6.71179 19.5164C6.71179 20.5047 7.5196 21.3082 8.50359 21.3082C9.48757 21.3082 10.2954 20.5004 10.2954 19.5164C10.2954 18.5324 9.48757 17.7246 8.50359 17.7246ZM8.50359 20.3715C8.05671 20.3715 7.65281 19.9676 7.65281 19.5207C7.65281 19.0738 8.00945 18.6699 8.50359 18.6699C8.95046 18.6699 9.35437 19.0738 9.35437 19.5207C9.35437 19.9676 8.95046 20.3715 8.50359 20.3715Z" fill="#222222" stroke="#222222" stroke-width="0.2"/>
</svg>
