<svg width="16" height="16" viewBox="0 0 16 16" fill="none" xmlns="http://www.w3.org/2000/svg">
<path d="M0.078125 9.46562C0.03125 9.09062 0 8.70937 0 8.32188C0 4.91562 1.86563 1.95 4.62813 0.378125L5.14375 1.46562V8.89375L4.57188 9.46562H0.078125ZM16 8.89375C16 9.46563 15.4281 10.0375 14.8562 10.0375H10.2844C10.5688 11.1812 10.8562 12.3219 10.8562 12.8937C10.8562 14.0375 10.2844 15.1781 10 15.4656C9.99375 15.4719 9.71562 15.75 9.14375 15.75C8.2875 15.75 8.2875 14.8937 8.2875 14.8937C8.2875 14.8781 8.00313 13.4656 8.00313 12.8937C8.00313 12.3219 6.85938 10.0375 6.2875 9.46562L5.71562 9.18125V1.18125L6.2875 0.896875H12.5719C13.7156 0.896875 14.2875 1.46875 14.2875 2.04062C14.2875 2.6125 13.7156 3.18437 13.1438 3.18437C14.2875 3.18437 14.8594 3.75625 14.8594 4.32812C14.8594 4.9 14.2875 5.47188 13.7156 5.47188C14.8594 5.47188 15.4312 6.04375 15.4312 6.61563C15.4312 7.1875 14.8594 7.75937 14.2875 7.75937C15.4281 7.75 16 8.32188 16 8.89375Z" fill="#CCCCCC"/>
</svg>
