<svg width="16" height="10" viewBox="0 0 16 10" fill="none" xmlns="http://www.w3.org/2000/svg">
<path d="M15 5.6C15.3314 5.6 15.6 5.33137 15.6 5C15.6 4.66863 15.3314 4.4 15 4.4L15 5.6ZM0.575736 4.57574C0.341421 4.81005 0.341421 5.18995 0.575736 5.42427L4.39411 9.24264C4.62843 9.47696 5.00833 9.47696 5.24264 9.24264C5.47696 9.00833 5.47696 8.62843 5.24264 8.39411L1.84853 5L5.24264 1.60589C5.47696 1.37157 5.47696 0.991675 5.24264 0.75736C5.00833 0.523045 4.62843 0.523045 4.39411 0.75736L0.575736 4.57574ZM15 4.4L1 4.4L1 5.6L15 5.6L15 4.4Z" fill="#222222"/>
</svg>
