<svg width="15" height="20" viewBox="0 0 15 20" fill="none" xmlns="http://www.w3.org/2000/svg">
<path d="M13.3409 2.14286H10.9248C10.92 1.57604 10.7013 1.03396 10.3156 0.633143C9.93003 0.232474 9.40849 0.00510204 8.86323 0H6.12558C5.57874 0 5.05449 0.225763 4.66779 0.627551C4.28125 1.0295 4.06406 1.57445 4.06406 2.14286H1.65895C-0.448587 2.14286 -0.545537 5.35714 1.34696 5.68208L1.93444 17.9678C1.96189 18.5166 2.1909 19.0335 2.57453 19.4118C2.958 19.79 3.46664 20.0005 3.99537 20H11.0045C11.5333 20.0008 12.0422 19.7902 12.4258 19.412C12.8096 19.0338 13.0387 18.5167 13.066 17.9678L13.6535 5.68208C15.5495 5.35715 15.4443 2.14286 13.3409 2.14286H13.3409ZM6.12558 1.42857H8.86461C9.04606 1.43112 9.21954 1.50718 9.34779 1.64062C9.47617 1.77407 9.54934 1.95424 9.55179 2.14287H5.43857C5.43857 1.95346 5.51097 1.77169 5.63981 1.63777C5.76866 1.50384 5.94352 1.42858 6.12574 1.42858L6.12558 1.42857ZM1.65895 3.57143H13.3409C13.5306 3.57143 13.6845 3.73135 13.6845 3.92857C13.6845 4.1258 13.5306 4.28571 13.3409 4.28571H1.65895C1.46921 4.28571 1.31537 4.1258 1.31537 3.92857C1.31537 3.73135 1.46921 3.57143 1.65895 3.57143ZM11.6917 17.8951C11.6823 18.078 11.6058 18.25 11.478 18.376C11.3501 18.5018 11.1806 18.5719 11.0045 18.5716H3.99532C3.81954 18.5719 3.65036 18.5021 3.52259 18.3768C3.39466 18.2513 3.31797 18.0797 3.30816 17.8973L2.72469 5.71447H12.2764L11.6917 17.8951ZM9.56144 16.4287V7.85731C9.56144 7.60204 9.69243 7.36625 9.90503 7.23869C10.1176 7.11114 10.3796 7.11114 10.5922 7.23869C10.8048 7.36625 10.9358 7.60205 10.9358 7.85731V16.4287C10.9358 16.684 10.8048 16.9198 10.5922 17.0473C10.3796 17.1749 10.1176 17.1749 9.90503 17.0473C9.69243 16.9198 9.56144 16.684 9.56144 16.4287ZM6.81275 16.4287V7.85731C6.81275 7.60204 6.94374 7.36625 7.15633 7.23869C7.36893 7.11114 7.63092 7.11114 7.84351 7.23869C8.0561 7.36625 8.18709 7.60205 8.18709 7.85731V16.4287C8.18709 16.684 8.0561 16.9198 7.84351 17.0473C7.63091 17.1749 7.36893 17.1749 7.15633 17.0473C6.94374 16.9198 6.81275 16.684 6.81275 16.4287ZM4.06406 16.4287V7.85731C4.06406 7.60204 4.19505 7.36625 4.40764 7.23869C4.62024 7.11114 4.88222 7.11114 5.09482 7.23869C5.30741 7.36625 5.4384 7.60205 5.4384 7.85731V16.4287C5.4384 16.684 5.30741 16.9198 5.09482 17.0473C4.88222 17.1749 4.62023 17.1749 4.40764 17.0473C4.19505 16.9198 4.06406 16.684 4.06406 16.4287Z" fill="#BBBBBB"/>
</svg>
