<svg width="50" height="50" viewBox="0 0 50 50" fill="none" xmlns="http://www.w3.org/2000/svg">
<path d="M49.3433 17.4362L44.9158 13.481L43.7194 7.66826C43.6468 7.33052 43.4782 7.02035 43.234 6.77625C42.9903 6.53171 42.6806 6.36284 42.3434 6.2901L36.54 5.09171L32.5912 0.657144C32.3608 0.388369 32.0562 0.19358 31.7156 0.0974328C31.3746 0.00170997 31.0137 0.00881645 30.6769 0.117915L25.0528 1.97549L19.4288 0.117915C19.092 0.00881966 18.731 0.00171425 18.39 0.0974328C18.0495 0.193574 17.7448 0.388369 17.5145 0.657144L13.5656 5.09171L7.76222 6.2901C7.42502 6.36284 7.11535 6.53171 6.87164 6.77625C6.62749 7.02035 6.45889 7.33052 6.38627 7.66826L5.1898 13.481L0.762341 17.4362C0.493997 17.6669 0.29952 17.972 0.203527 18.3131C0.107957 18.6546 0.115053 19.0162 0.223977 19.3535L2.07857 24.9866L0.223977 30.6197C0.115056 30.957 0.107961 31.3186 0.203527 31.6601C0.299514 32.0012 0.493997 32.3063 0.762341 32.5371L5.1898 36.4922L6.38627 42.305C6.45889 42.6427 6.62749 42.9529 6.87164 43.197C7.11535 43.4415 7.42502 43.6104 7.76222 43.6831L13.5656 44.8815L17.5145 49.3161C17.7448 49.5849 18.0495 49.7796 18.39 49.8758C18.731 49.9715 19.092 49.9644 19.4288 49.8553L25.0528 47.9977L30.6769 49.8553L31.2152 49.9753C31.7185 49.9694 32.196 49.7517 32.5315 49.3763L36.4803 44.9417L42.2837 43.7433C42.6209 43.6702 42.9302 43.5017 43.1743 43.2572C43.4184 43.0126 43.587 42.7029 43.6597 42.3647L44.8561 36.552L49.2836 32.5968V32.5973C49.5519 32.3661 49.7464 32.061 49.842 31.7199C49.938 31.3788 49.9309 31.0168 49.822 30.6795L48.027 24.9867L49.8816 19.3536C49.9905 19.0163 49.9976 18.6547 49.902 18.3132C49.806 17.9721 49.6116 17.667 49.3432 17.4362L49.3433 17.4362ZM13.0869 18.7545C13.0869 17.3877 13.629 16.0768 14.5938 15.1103C15.5587 14.1438 16.8674 13.601 18.2322 13.601C19.5968 13.601 20.9056 14.1439 21.8705 15.1103C22.8355 16.0767 23.3775 17.3876 23.3775 18.7545C23.3775 20.121 22.8354 21.4319 21.8705 22.3983C20.9057 23.3651 19.5969 23.9081 18.2322 23.9081C16.8676 23.9081 15.5588 23.3651 14.5938 22.3983C13.629 21.4319 13.0869 20.121 13.0869 18.7545ZM18.6508 33.9156L16.138 31.3987L31.2747 16.1777L33.7875 18.6946L18.6508 33.9156ZM31.2747 36.9118C29.9067 36.9114 28.595 36.3659 27.6297 35.3949C26.6644 34.4243 26.1248 33.108 26.1298 31.7377C26.1353 30.3675 26.6853 29.0559 27.6586 28.0928C28.6314 27.1297 29.9473 26.5942 31.3153 26.6047C32.6834 26.6156 33.9908 27.1711 34.9486 28.1497C35.9068 29.1278 36.4365 30.4479 36.4201 31.8181C36.4201 33.1849 35.878 34.4958 34.9132 35.4623C33.9483 36.4288 32.6396 36.9716 31.2748 36.9716L31.2747 36.9118Z" fill="#FF9B04"/>
</svg>
