<svg width="49" height="60" viewBox="0 0 49 60" fill="none" xmlns="http://www.w3.org/2000/svg">
<path fill-rule="evenodd" clip-rule="evenodd" d="M32.1765 22.5391H16.3929C14.7531 22.5391 13.1133 23.9726 13.1133 25.6108V39.1256C13.1133 40.7637 14.7531 41.9923 16.3929 41.9923H32.1765C33.8163 41.9923 35.4561 40.7637 35.4561 39.1256V25.6108C35.4561 23.9727 33.8163 22.5391 32.1765 22.5391ZM34.2262 35.2356H14.5482V33.802H34.2262V35.2356ZM34.2262 31.1402H14.5482V29.7067H34.2262V31.1402ZM34.2262 28.0684H14.5482V26.4303H34.2262V28.0684Z" fill="#FF9B04"/>
<path fill-rule="evenodd" clip-rule="evenodd" d="M43.0393 37.6917H38.5299V25.6103C38.5299 24.9957 38.5299 24.5862 38.3247 24.1767C37.7095 21.5146 35.0451 19.6719 32.1754 19.6719H16.3918C14.3421 19.6719 12.2922 20.6959 11.2671 22.1291C10.652 22.7436 10.4472 23.3577 10.242 24.1767C10.0368 24.5862 10.0368 24.9958 10.0368 25.6103V37.6917H5.52734C3.06759 37.6917 1.22266 39.5349 1.22266 41.5825V43.8352C1.22266 45.8828 3.06771 47.7259 5.52734 47.7259H43.0392C45.4989 47.7259 47.3438 45.8828 47.3438 43.8352V41.5825C47.3438 39.5349 45.4988 37.6917 43.0392 37.6917H43.0393ZM5.52752 45.8824C4.29764 45.8824 3.27254 45.0633 3.27254 43.8348V41.5821C3.27254 40.3535 4.29766 39.5345 5.52752 39.5345H8.19241C8.19241 42.1967 10.0375 44.6539 12.4971 45.8825L5.52752 45.8824ZM32.1752 43.6297H16.3916C13.7267 43.6297 11.6769 41.5821 11.6769 39.1249V25.6101V24.5861C12.2921 22.5385 14.1366 21.1048 16.3916 21.1048H32.1752C34.4302 21.1048 36.2748 22.5383 36.89 24.5861V25.6101V39.1249C36.89 41.5821 34.8402 43.6297 32.1752 43.6297ZM45.2943 43.8347C45.2943 45.0634 44.2692 45.8824 43.0393 45.8824H36.0701C38.5299 44.6537 40.3748 42.1965 40.3748 39.5344H43.0397C44.2696 39.5344 45.2947 40.3534 45.2947 41.582V43.8346L45.2943 43.8347Z" fill="#FF9B04"/>
<path fill-rule="evenodd" clip-rule="evenodd" d="M38.3263 22.1289V22.5384C38.3263 22.3334 38.1211 22.3334 38.1211 22.1289H38.3263Z" fill="#FF9B04"/>
<path fill-rule="evenodd" clip-rule="evenodd" d="M11.0631 18.2383L12.7029 20.0815H12.4977C11.8825 20.491 11.2678 21.1056 10.6526 21.7196C10.6526 21.9246 10.4474 21.9246 10.4474 22.1291C10.4474 22.3341 10.2422 22.3341 10.2422 22.5387V18.8528C10.4474 18.6478 10.6521 18.4433 11.0621 18.2383L11.0631 18.2383Z" fill="#FF9B04"/>
<path fill-rule="evenodd" clip-rule="evenodd" d="M38.3263 22.1289V22.5384C38.3263 22.3334 38.1211 22.3334 38.1211 22.1289H38.3263Z" fill="#FF9B04"/>
<path fill-rule="evenodd" clip-rule="evenodd" d="M44.27 58.9885V53.8691H44.8851C46.5249 53.8691 47.9601 52.6405 47.9601 51.207V51.002C47.9601 49.3639 46.5251 48.1353 44.8851 48.1353H4.7088C3.069 48.1353 1.83912 49.3639 1.83912 51.002V51.207C1.83912 52.6405 3.069 53.8691 4.7088 53.8691H5.5287V58.9885H-0.00585938V60.0126H48.9844V58.9885H44.27ZM11.2681 53.8691H38.5301V58.9885H11.2681V53.8691Z" fill="#FF9B04"/>
<path fill-rule="evenodd" clip-rule="evenodd" d="M37.0964 10.0482L25.6172 12.0959V8.20508C29.102 8.41008 32.7915 8.81962 36.4812 9.84319H36.8916C37.0968 9.84319 37.0968 10.0482 37.0968 10.0482L37.0964 10.0482Z" fill="#FF9B04"/>
<path fill-rule="evenodd" clip-rule="evenodd" d="M23.3617 8.20454V12.2999L11.4727 14.3475V10.0472V9.84221H12.0878C15.7775 8.81814 19.6722 8.2041 23.3617 8.2041L23.3617 8.20454Z" fill="#FF9B04"/>
<path fill-rule="evenodd" clip-rule="evenodd" d="M38.3249 3.90408V8.81842C38.1197 8.40888 37.505 7.99935 36.8899 7.99935H36.6847C32.5852 6.97528 28.4856 6.36124 24.386 6.36124C20.0813 6.36124 15.9817 6.97577 11.8824 7.99935H11.6772C11.062 7.99935 10.4473 8.40888 10.2422 8.81842V3.90408C10.2422 3.49455 10.6521 3.08501 11.0621 3.08501C19.8762 1.24185 28.6899 1.24185 37.505 3.08501C37.915 3.08501 38.3249 3.49455 38.3249 3.90408Z" fill="#FF9B04"/>
<path fill-rule="evenodd" clip-rule="evenodd" d="M40.7841 22.1287C40.5789 21.9237 40.3742 21.5142 40.1689 21.3096L41.8087 19.8761H43.4485C44.2684 19.8761 44.8836 19.2615 44.8836 18.4425V15.1663C44.8836 14.3472 44.2684 13.7328 43.4485 13.7328H42.4234V12.2992C42.8334 12.0942 43.2433 11.6847 43.2433 11.0706V10.4561C43.2433 10.0465 42.8334 9.63699 42.4234 9.43198V6.15576H42.0135V9.22754C41.3983 9.22754 40.7836 9.84208 40.7836 10.4562V11.0707C40.7836 11.8898 41.3988 12.2993 42.0135 12.2993V13.7329H41.6035C40.7836 13.7329 40.1685 14.3474 40.1685 15.1664V18.4426C40.1685 19.0572 40.3737 19.4667 40.7837 19.6712L39.7585 20.6953C39.3486 20.0808 38.9386 19.4667 38.3235 19.0572V10.0475V9.43298C38.1183 9.02345 37.5036 8.61391 36.8885 8.61391H36.6833C32.5837 7.58984 28.4842 6.9758 24.3845 6.9758C20.0798 6.9758 15.9803 7.59034 11.881 8.61391H11.6758C11.0606 8.61391 10.4459 9.02345 10.2408 9.43298V10.0475V18.8526C9.21564 19.8767 8.3957 20.9002 7.78101 21.9244V17.8291H9.4208V5.95218H7.78101V0.0136719H6.34599V5.95218H4.29628V17.8291H6.34599V22.1293H3.06641V35.8487H9.42093V25.6099V24.7908C9.42093 24.5858 9.62614 24.1763 9.62614 23.9718C10.2413 22.5382 11.2659 21.3096 12.4958 20.081C13.7257 19.4664 15.1607 19.0569 16.3906 19.0569H32.1742C33.4041 19.0569 34.6339 19.2619 35.8638 19.876V20.081C37.2988 21.1051 38.3236 22.5382 38.7335 23.9718C38.9387 24.1768 38.9387 24.5863 38.9387 24.7908H39.1439V25.6099V35.8487H45.2932V22.1293H40.7837L40.7841 22.1287ZM24.1814 18.2379H10.8576V10.0472C10.8576 9.6377 11.2675 9.22816 11.6775 9.22816H11.8827C15.9822 8.20409 20.0818 7.59005 24.1814 7.59005V18.2383L24.1814 18.2379ZM37.71 18.2379H25.0005V7.58964C28.8953 7.58964 32.7896 8.20417 36.6843 9.22775H36.8895C37.2995 9.22775 37.7095 9.63728 37.7095 10.0468L37.71 18.2379Z" fill="#FF9B04"/>
</svg>
