<svg width="50" height="50" viewBox="0 0 50 50" fill="none" xmlns="http://www.w3.org/2000/svg">
<path d="M8.18787 23.0044C8.18787 20.321 10.3633 18.1453 13.0466 18.1453C15.73 18.1453 17.9054 20.3207 17.9054 23.0044C17.9054 25.6878 15.7299 27.8632 13.0466 27.8632C10.3635 27.8635 8.18787 25.6881 8.18787 23.0044Z" fill="#FF9B04"/>
<path d="M6.94415 13.7616C6.94415 11.4886 8.78611 9.64648 11.0586 9.64648C13.331 9.64648 15.1737 11.4884 15.1737 13.7616C15.1737 16.034 13.3312 17.8771 11.0586 17.8771C8.78611 17.8769 6.94415 16.0345 6.94415 13.7616Z" fill="#FF9B04"/>
<path d="M12.3849 6.48441C12.3849 3.88691 14.4904 1.78149 17.0883 1.78149C19.6853 1.78149 21.7912 3.88695 21.7912 6.48441C21.7912 9.08187 19.6852 11.1877 17.0883 11.1877C14.49 11.1877 12.3849 9.08179 12.3849 6.48441Z" fill="#FF9B04"/>
<path d="M42.8125 15.0208C42.8125 12.8878 41.083 11.1588 38.95 11.1588C37.745 11.1588 36.6706 11.7102 35.9606 12.5738C36.0601 12.1889 36.1122 11.7848 36.1122 11.3688C36.1122 8.68534 33.9372 6.51001 31.2534 6.51001C28.5709 6.51001 26.3947 8.68497 26.3947 11.3688C26.3947 14.0522 28.5706 16.2279 31.2534 16.2279C32.8579 16.2279 34.2789 15.4504 35.1644 14.2518C35.1134 14.5009 35.0874 14.7579 35.0874 15.0214C35.0874 15.7014 35.2643 16.3404 35.5729 16.8949C35.0953 16.7719 34.5953 16.7074 34.0799 16.7074C30.778 16.7074 28.1003 19.3843 28.1003 22.6866C28.1003 25.9885 30.7779 28.6658 34.0799 28.6658C37.3825 28.6658 40.0595 25.9888 40.0595 22.6866C40.0595 21.2376 39.543 19.9086 38.6864 18.8736C38.7724 18.8796 38.8604 18.8842 38.9499 18.8842C41.0829 18.884 42.8124 17.154 42.8124 15.021L42.8125 15.0208Z" fill="#FF9B04"/>
<path d="M35.4591 6.93326C35.4591 4.8823 37.1211 3.22021 39.1712 3.22021C41.2231 3.22021 42.8852 4.88217 42.8852 6.93326C42.8852 8.98422 41.2233 10.6468 39.1712 10.6468C37.1211 10.6468 35.4591 8.98438 35.4591 6.93326Z" fill="#FF9B04"/>
<path d="M22.0071 3.74795C22.0071 1.6975 23.669 0.0349121 25.7185 0.0349121C27.7695 0.0349121 29.4325 1.69733 29.4325 3.74795C29.4325 5.79937 27.7696 7.46099 25.7185 7.46099C23.669 7.46083 22.0071 5.79887 22.0071 3.74795Z" fill="#FF9B04"/>
<path d="M37.2808 32.0421V33.9446H45.2371V43.4567H45.2156V48.5296C45.2156 49.3076 44.5855 49.9386 43.8075 49.9386H41.2431C40.4646 49.9386 39.8341 49.3071 39.8341 48.5296V43.4567H38.4521V48.5296C38.4521 49.3076 37.821 49.9386 37.0431 49.9386H34.4796C33.7011 49.9386 33.0706 49.3071 33.0706 48.5296V39.5396H31.7036V43.4126L18.1761 43.4125V39.5394H16.7291V48.529C16.7291 49.307 16.0981 49.938 15.3201 49.938H12.7562C11.9782 49.938 11.3472 49.3065 11.3472 48.529V43.4569H9.96516V48.5298C9.96516 49.3078 9.33461 49.9388 8.55616 49.9388H5.9927C5.2142 49.9388 4.58416 49.3073 4.58416 48.5298V33.9448L12.545 33.9447V32.0422H4.58374V6.39551H5.92228L7.89528 28.6601H20.7624C19.6065 27.8346 18.8514 26.4832 18.8514 24.953C18.8514 23.3415 19.6894 21.927 20.9525 21.1181C18.3089 20.6931 16.2887 18.4026 16.2887 15.6385C16.2887 12.5724 18.7742 10.0881 21.84 10.0881C24.9054 10.0881 27.3904 12.5726 27.3904 15.6385C27.3904 17.7524 26.2089 19.59 24.4698 20.5277C26.4698 21.0077 27.9558 22.8066 27.9558 24.9535C27.9558 26.4835 27.2008 27.835 26.0449 28.6606H41.7149L43.6864 6.39597H45.2373V32.0426H37.2807L37.2808 32.0421ZM19.7333 40.7792C19.7333 41.4013 20.2383 41.9066 20.8603 41.9066C21.4833 41.9066 21.9877 41.4011 21.9877 40.7792C21.9877 40.1561 21.4827 39.6517 20.8603 39.6517C20.2382 39.6517 19.7333 40.1561 19.7333 40.7792ZM23.0307 40.7792C23.0307 41.4013 23.5357 41.9066 24.1581 41.9066C24.7807 41.9066 25.2856 41.4011 25.2856 40.7792C25.2856 40.1561 24.7806 39.6517 24.1581 39.6517C23.5357 39.6517 23.0307 40.1561 23.0307 40.7792ZM27.9324 40.7792C27.9324 41.4013 28.4364 41.9066 29.0593 41.9066C29.6814 41.9066 30.1863 41.4011 30.1863 40.7792C30.1863 40.1561 29.6812 39.6517 29.0593 39.6517C28.4364 39.6517 27.9324 40.1561 27.9324 40.7792Z" fill="#FF9B04"/>
</svg>
