<svg width="41" height="50" viewBox="0 0 41 50" fill="none" xmlns="http://www.w3.org/2000/svg">
<path d="M26.346 34.0732C26.6845 34.7073 26.854 35.6584 26.854 36.926C26.854 38.202 26.6845 39.159 26.346 39.7971C26.0076 40.4352 25.4957 40.7542 24.8105 40.7542C24.133 40.7542 23.623 40.4352 23.2807 39.7971C22.9378 39.1591 22.7669 38.2021 22.7669 36.926C22.7669 35.6584 22.9384 34.7073 23.2807 34.0732C23.623 33.439 24.1329 33.122 24.8105 33.122C25.4957 33.122 26.0076 33.439 26.346 34.0732ZM16.1134 31.6155C16.7929 31.6155 17.3021 31.2958 17.6419 30.6565C17.9816 30.0172 18.1511 29.0628 18.1511 27.7932C18.1511 26.523 17.9809 25.5705 17.6419 24.9357C17.3021 24.3009 16.7929 23.9832 16.1134 23.9832C15.4339 23.9832 14.9228 24.3009 14.5791 24.9357C14.2355 25.5704 14.0634 26.5229 14.0634 27.7932C14.0634 29.0634 14.2355 30.0178 14.5791 30.6565C14.9228 31.2958 15.434 31.6155 16.1134 31.6155ZM40.8923 29.411C40.8923 40.7652 31.7436 49.9693 20.4586 49.9693C9.17356 49.9693 0.0248413 40.7648 0.0248413 29.411C0.0248413 21.4787 4.49045 14.5958 11.0301 11.1677C11.9865 13.3213 13.2905 15.1755 14.7211 16.4091C15.7176 17.2685 16.7323 17.7855 17.686 17.9261C18.3176 18.7751 19.3244 19.3239 20.4594 19.3239C22.3716 19.3239 23.9213 17.7646 23.9213 15.8409C23.9213 13.9171 22.3715 12.3579 20.4594 12.3579C18.5984 12.3579 17.0808 13.8357 17.0013 15.6879C16.6642 15.5075 16.3128 15.2614 15.9582 14.9555C14.7313 13.8975 13.5996 12.2725 12.7551 10.3623C15.1326 9.38767 17.7332 8.85122 20.4588 8.85122C31.7441 8.85252 40.8925 18.0569 40.8925 29.4112L40.8923 29.411ZM12.2453 27.799C12.2453 29.1408 12.6051 30.2378 13.3253 31.09C14.0456 31.9422 14.9741 32.368 16.1117 32.368C17.2492 32.368 18.1759 31.9422 18.8922 31.09C19.6079 30.2378 19.9664 29.1408 19.9664 27.799C19.9664 26.4487 19.606 25.3498 18.8864 24.5015C18.1662 23.6539 17.2415 23.2294 16.1123 23.2294C14.9747 23.2294 14.0461 23.6532 13.326 24.5015C12.6057 25.3498 12.2453 26.4488 12.2453 27.799ZM28.5062 22.773H26.9874L12.3923 41.9647H13.9259L28.5062 22.773ZM28.6699 36.9383C28.6699 35.5965 28.3101 34.4995 27.5912 33.6473C26.8723 32.7952 25.945 32.3693 24.8093 32.3693C23.6737 32.3693 22.7464 32.7951 22.0274 33.6473C21.3085 34.4995 20.9487 35.5965 20.9487 36.9383C20.9487 38.2808 21.3079 39.3778 22.0274 40.2293C22.7464 41.0816 23.6737 41.5073 24.8093 41.5073C25.945 41.5073 26.8722 41.0809 27.5912 40.2293C28.3101 39.3771 28.6699 38.2802 28.6699 36.9383ZM14.9605 16.125C16.0819 17.0925 17.1995 17.5905 18.2064 17.5905C18.5959 17.5905 18.9693 17.5156 19.3194 17.3646C20.5126 16.8496 21.2556 15.5138 21.4114 13.6036L20.2557 13.5085C20.1367 14.9675 19.6423 15.9559 18.8625 16.2924C18.0472 16.6446 16.9005 16.2605 15.7157 15.239C14.4028 14.1068 13.1986 12.3541 12.3236 10.3041C11.4493 8.25331 11.0164 6.16748 11.1057 4.43048C11.186 2.86278 11.6998 1.76182 12.5145 1.41032C13.3298 1.0581 14.4765 1.44222 15.6606 2.4637C16.9736 3.59587 18.1778 5.34853 19.0527 7.3992C19.1796 7.69606 19.2986 7.99946 19.408 8.30023L20.4977 7.90115C20.3812 7.57953 20.2537 7.25596 20.1185 6.93891C19.1757 4.72791 17.8601 2.82375 16.4157 1.57825C14.8601 0.237099 13.3123 -0.203585 12.0575 0.338015C10.8021 0.879681 10.0534 2.31202 9.94802 4.37052C9.85031 6.28268 10.3156 8.55285 11.2584 10.7643C12.2006 12.9753 13.5161 14.879 14.9605 16.125Z" fill="#FF9B04"/>
</svg>
