<svg width="42" height="44" viewBox="0 0 42 44" fill="none" xmlns="http://www.w3.org/2000/svg">
<path d="M33.2808 26.0421V27.9446H41.2371V37.4567H41.2156V42.5296C41.2156 43.3076 40.5855 43.9386 39.8075 43.9386H37.2431C36.4646 43.9386 35.8341 43.3071 35.8341 42.5296V37.4567H34.4521V42.5296C34.4521 43.3076 33.821 43.9386 33.0431 43.9386H30.4796C29.7011 43.9386 29.0706 43.3071 29.0706 42.5296V33.5396H27.7036V37.4126L14.1761 37.4125V33.5394H12.7291V42.529C12.7291 43.307 12.0981 43.938 11.3201 43.938H8.75616C7.97816 43.938 7.34716 43.3065 7.34716 42.529V37.4569H5.96516V42.5298C5.96516 43.3078 5.33461 43.9388 4.55616 43.9388H1.9927C1.2142 43.9388 0.584157 43.3073 0.584157 42.5298V27.9448L8.54499 27.9447V26.0422H0.58374V0.395508H1.92228L3.89528 22.6601H16.7624C15.6065 21.8346 14.8514 20.4832 14.8514 18.953C14.8514 17.3415 15.6894 15.927 16.9525 15.1181C14.3089 14.6931 12.2887 12.4026 12.2887 9.63851C12.2887 6.57242 14.7742 4.08809 17.84 4.08809C20.9054 4.08809 23.3904 6.57263 23.3904 9.63851C23.3904 11.7524 22.2089 13.59 20.4698 14.5277C22.4698 15.0077 23.9558 16.8066 23.9558 18.9535C23.9558 20.4835 23.2008 21.835 22.0449 22.6606H37.7149L39.6864 0.395966H41.2373V26.0426H33.2807L33.2808 26.0421ZM15.7333 34.7792C15.7333 35.4013 16.2383 35.9066 16.8603 35.9066C17.4833 35.9066 17.9877 35.4011 17.9877 34.7792C17.9877 34.1561 17.4827 33.6517 16.8603 33.6517C16.2382 33.6517 15.7333 34.1561 15.7333 34.7792ZM19.0307 34.7792C19.0307 35.4013 19.5357 35.9066 20.1581 35.9066C20.7807 35.9066 21.2856 35.4011 21.2856 34.7792C21.2856 34.1561 20.7806 33.6517 20.1581 33.6517C19.5357 33.6517 19.0307 34.1561 19.0307 34.7792ZM23.9324 34.7792C23.9324 35.4013 24.4364 35.9066 25.0593 35.9066C25.6814 35.9066 26.1863 35.4011 26.1863 34.7792C26.1863 34.1561 25.6812 33.6517 25.0593 33.6517C24.4364 33.6517 23.9324 34.1561 23.9324 34.7792Z" fill="#FF9B04"/>
</svg>
