<svg width="48" height="50" viewBox="0 0 48 50" fill="none" xmlns="http://www.w3.org/2000/svg">
<path d="M32.194 21.218V29.6199L33.1595 28.5497C33.1897 28.5197 33.2199 28.4897 33.2601 28.4597C33.5317 28.2596 33.9239 28.3196 34.125 28.5997L35.3018 30.2001L36.4987 28.5997C36.5288 28.5697 36.5489 28.5297 36.5892 28.5097C36.8406 28.2896 37.2329 28.3096 37.4541 28.5597L38.3895 29.6099V21.228H32.1941L32.194 21.218ZM39.6165 21.218V31.2207C39.6165 31.5608 39.3449 31.8309 38.9929 31.8309C38.7917 31.8309 38.6107 31.7309 38.5001 31.5808L37.0216 29.9205L35.7846 31.5909C35.5834 31.8609 35.1912 31.921 34.9196 31.7209C34.8593 31.6709 34.809 31.6209 34.7688 31.5609L33.5719 29.9305L32.0332 31.6409C31.8018 31.891 31.4196 31.911 31.1682 31.6909C31.0274 31.5709 30.9671 31.4008 30.9671 31.2408V21.2381H24.6007V41.2426H45.9929V21.2381H39.6164L39.6165 21.218ZM16.9976 21.218V31.2207C16.9976 31.3908 16.9272 31.5508 16.7965 31.6708C16.545 31.9009 16.1528 31.8709 15.9315 31.6208L14.3928 29.9105L13.1959 31.5408C13.1557 31.6008 13.1054 31.6608 13.045 31.7009C12.7735 31.9009 12.3812 31.8409 12.1801 31.5708L10.933 29.9105L9.45457 31.5908C9.34394 31.7409 9.1629 31.8409 8.96175 31.8409C8.61979 31.8409 8.33819 31.5708 8.33819 31.2308V21.228H1.97185V41.2326H23.364V21.228H16.9977L16.9976 21.218ZM9.57517 21.218V29.5999L10.5105 28.5497C10.7318 28.2896 11.124 28.2696 11.3755 28.4997L11.466 28.5897L12.6629 30.1901L13.8396 28.5897C14.0407 28.3196 14.4229 28.2596 14.6945 28.4497C14.7347 28.4797 14.7649 28.5097 14.7951 28.5397L15.7706 29.6099V21.208H9.57519L9.57517 21.218ZM28.3126 -0.0165723V9.98617C28.3126 10.1562 28.2422 10.3263 28.1115 10.4463C27.86 10.6763 27.4678 10.6463 27.2465 10.3963L25.6877 8.68588L24.4908 10.3162C24.4506 10.3763 24.4003 10.4363 24.3399 10.4763C24.0684 10.6763 23.6862 10.6163 23.475 10.3462L22.2279 8.68589L20.7495 10.3462C20.6388 10.4963 20.4578 10.5963 20.2466 10.5963C19.9046 10.5963 19.623 10.3262 19.623 9.97617V-0.0165156H13.2667V19.9881H34.6791V-0.0165156L28.3126 -0.0165723ZM27.0756 -0.0165723H20.8902V8.36532L21.8256 7.31511C22.0468 7.05505 22.4391 7.03505 22.6905 7.2651L22.781 7.35512L23.9779 8.95549L25.1446 7.35512C25.3457 7.08506 25.7279 7.02505 26.0095 7.2151C26.0498 7.2451 26.0799 7.27511 26.1101 7.30512L27.0857 8.37535V-0.0166016L27.0756 -0.0165723ZM47.9749 42.4635H-0.0195923V45.6142H47.9749V42.4635ZM-0.0195923 46.8445V49.9952H3.5508V46.8445H-0.0195923ZM44.4043 46.8445V49.9952H47.9747V46.8445H44.4043ZM22.1974 46.8445V49.9952H25.7678V46.8445H22.1974Z" fill="#FF9B04"/>
</svg>
