<svg width="50" height="50" viewBox="0 0 50 50" fill="none" xmlns="http://www.w3.org/2000/svg">
<g clip-path="url(#clip0_47_317)">
<path d="M21.3545 0.0263672H13.8627C13.3514 0.0263672 12.9368 0.44097 12.9368 0.952293V8.41917C16.1457 6.05727 18.983 3.22817 21.3545 0.0263672Z" fill="#FF9B04"/>
<path d="M29.0254 20.9682C28.5517 21.1604 28.0114 20.9322 27.8188 20.4585C27.6262 19.9844 27.8544 19.4441 28.3285 19.252C31.1373 18.1285 34.0436 17.265 37.0103 16.6722V10.1122C34.6326 10.8248 32.1678 11.2047 29.6855 11.2415H29.5987C29.3532 11.2407 29.118 11.1427 28.9448 10.9687C28.7716 10.7946 28.6744 10.559 28.6749 10.3135C28.6761 9.80217 29.0915 9.38839 29.6028 9.38963C29.6301 9.39128 29.657 9.39128 29.6843 9.38963C32.1727 9.34168 34.6413 8.92955 37.0102 8.16645V0.95206C37.0102 0.706525 36.9127 0.470906 36.739 0.297298C36.5654 0.123689 36.3298 0.0261335 36.0843 0.0261335H36.031C33.6814 4.06635 28.2495 5.48539 27.9754 5.55396C27.4806 5.67508 26.9809 5.37374 26.8569 4.87977C26.7329 4.38539 27.0317 3.88399 27.5253 3.75755C27.5778 3.74432 31.5481 2.70183 33.7745 0.026123H23.6765C20.7875 4.20972 17.1454 7.81956 12.9358 10.6706V14.02C15.4911 12.4947 18.1949 11.2335 21.0058 10.256C21.4919 10.0964 22.0152 10.3605 22.1748 10.8462C22.3348 11.3324 22.0706 11.8557 21.5845 12.0152C18.5583 13.0854 15.6582 14.4834 12.9359 16.1843V21.2216C15.2474 19.2396 18.3294 16.8706 20.9253 15.8326C21.4002 15.6424 21.9392 15.8735 22.129 16.3485C22.3191 16.8234 22.0881 17.3624 21.6131 17.5526C18.8399 18.6613 15.3027 21.5721 13.0471 23.5906C13.2008 23.9002 13.5158 24.0974 13.8618 24.0998H36.084C36.3296 24.0998 36.5652 24.0023 36.7388 23.8287C36.9124 23.6551 37.01 23.4194 37.01 23.1739V18.5707C34.283 19.1329 31.611 19.9349 29.0251 20.9678L29.0254 20.9682ZM25.9566 11.0992C25.6718 11.1178 25.3824 11.1463 25.0902 11.1831V11.1835C25.0509 11.1881 25.0112 11.1905 24.972 11.1905C24.483 11.1905 24.0779 10.8107 24.0473 10.3225C24.0167 9.83473 24.3709 9.40691 24.8562 9.34572C25.1882 9.30314 25.5172 9.2709 25.8417 9.25065V9.25106C26.3501 9.22502 26.7858 9.60985 26.8234 10.1171C26.8387 10.3626 26.756 10.6036 26.5932 10.7879C26.4307 10.9719 26.2017 11.0839 25.9566 11.0992Z" fill="#FF9B04"/>
<path d="M4.1894 30.6793C4.64699 30.4507 5.20296 30.6359 5.43194 31.0935C5.66054 31.5511 5.47535 32.107 5.01775 32.336C3.39817 32.9185 1.69479 33.2322 -0.0260577 33.2648V37.703C4.10177 37.0355 8.03119 35.4659 11.4829 33.1064C11.6842 32.9589 11.9368 32.8989 12.1832 32.9399C12.4295 32.9812 12.6486 33.1201 12.7908 33.3251C12.933 33.5305 12.9867 33.7843 12.9392 34.0295C12.8917 34.2746 12.7474 34.4899 12.5387 34.6272C8.78077 37.2128 4.48437 38.9088 -0.0264282 39.5871V49.1001C-0.0264282 49.3456 0.0711252 49.5812 0.244736 49.7548C0.418346 49.9285 0.653963 50.026 0.899498 50.026H1.31369C3.64586 47.6934 6.09422 45.479 8.64872 43.3916C9.04554 43.0692 9.62879 43.13 9.95126 43.5268C10.2737 43.924 10.2133 44.5073 9.81609 44.8293C7.59144 46.6348 5.58784 48.4602 3.96043 50.026H12.8973C16.043 46.7257 19.8396 44.115 24.0475 42.3595V36.57C21.2751 37.4169 18.635 38.6471 16.2032 40.2253C15.9948 40.363 15.7394 40.4109 15.4951 40.3576C15.2508 40.3047 15.0383 40.1546 14.9061 39.9426C14.7742 39.7301 14.7333 39.4734 14.7936 39.2308C14.8536 38.9881 15.009 38.7798 15.2252 38.6537C17.9459 36.8812 20.9208 35.5337 24.0475 34.6573V26.8778C24.0475 26.6323 23.9499 26.3967 23.7763 26.2231C23.6027 26.0495 23.3671 25.9519 23.1216 25.9519H21.7897C20.4955 26.9349 19.3186 28.0633 18.2827 29.3154C17.401 30.3938 16.4413 31.4058 15.4103 32.3421C15.0295 32.667 14.4599 32.6306 14.1239 32.2602C13.7874 31.8898 13.806 31.3194 14.1661 30.9718C15.1288 30.0963 16.0257 29.1509 16.8491 28.1432C17.4894 27.3669 18.1818 26.6348 18.9209 25.952H0.899714C0.388391 25.952 -0.0262119 26.3666 -0.0262119 26.8779V31.4058C1.40733 31.3761 2.8285 31.1314 4.18924 30.6791L4.1894 30.6793ZM13.6926 40.7562C13.8344 40.9567 13.891 41.2051 13.8497 41.4474C13.8087 41.6896 13.6727 41.9054 13.4723 42.0472C13.1656 42.2642 12.8613 42.4841 12.56 42.7065C12.1479 43.0095 11.5683 42.9214 11.2649 42.5093C10.962 42.0976 11.05 41.5176 11.4621 41.2147C11.7726 40.9869 12.0859 40.7604 12.4017 40.5355C12.6022 40.3938 12.8506 40.3371 13.0928 40.3785C13.3346 40.4198 13.5504 40.5558 13.6926 40.7562Z" fill="#FF9B04"/>
<path d="M15.5513 50.0264H23.1216C23.3671 50.0264 23.6027 49.9288 23.7763 49.7552C23.9499 49.5816 24.0475 49.346 24.0475 49.1005V44.3811C20.9275 45.7886 18.0575 47.6954 15.5513 50.0264Z" fill="#FF9B04"/>
<path d="M25.8994 41.4602V49.1003C25.8994 49.3458 25.997 49.5815 26.1706 49.7551C26.3442 49.9287 26.5798 50.0262 26.8254 50.0262H30.615C29.3109 47.0314 27.7322 44.1636 25.8994 41.4602Z" fill="#FF9B04"/>
<path d="M44.0529 36.0623C40.6083 34.5867 37.7193 30.1 35.6811 25.9524H26.9952C29.1286 27.3938 31.1185 29.0368 32.9368 30.8598C33.115 31.0338 33.215 31.2723 33.215 31.5212C33.2154 31.77 33.1154 32.0085 32.9376 32.1826C32.7599 32.357 32.5193 32.4521 32.2709 32.4471C32.022 32.4421 31.7856 32.3371 31.6149 32.1561C29.8667 30.4079 27.9525 28.8339 25.8993 27.4566V38.1275C28.3254 41.6469 31.2263 46.2748 32.5892 50.027H39.9532C38.4626 47.5079 37.4677 44.7273 37.0212 41.8346C36.8827 40.948 36.6562 40.077 36.3454 39.235C36.1693 38.7551 36.4157 38.2227 36.8956 38.0467C37.3759 37.8702 37.9079 38.1165 38.0843 38.5969C38.4374 39.5542 38.6945 40.5446 38.852 41.5528C39.3273 44.5844 40.4579 47.4763 42.1638 50.0271H49.0475C49.3571 50.0234 49.6436 49.8622 49.8077 49.5997C47.4582 45.8277 44.5072 42.4655 41.0717 39.6468C40.8712 39.4984 40.739 39.2752 40.7055 39.028C40.6716 38.7812 40.7385 38.5307 40.8919 38.334C41.0448 38.1372 41.2709 38.0103 41.519 37.9822C41.7666 37.9545 42.0154 38.0277 42.2084 38.1852C45.1519 40.5826 47.7632 43.3612 49.9734 46.4478V40.4347C48.2725 38.6407 46.268 37.1608 44.0529 36.063V36.0623ZM33.599 42.5711H33.5994C33.3663 42.6492 33.1121 42.6315 32.8922 42.5215C32.6727 42.412 32.5053 42.2194 32.428 41.9862C31.8836 40.5477 30.7481 39.4118 29.3096 38.8674C29.0702 38.795 28.8702 38.6289 28.7552 38.4065C28.6403 38.1845 28.6201 37.9253 28.6994 37.6881C28.7784 37.4508 28.9504 37.2557 29.1756 37.147C29.4009 37.0383 29.6609 37.0254 29.8957 37.1114C31.8844 37.8439 33.4522 39.4113 34.1847 41.4C34.2628 41.6331 34.2446 41.8873 34.1351 42.1068C34.0251 42.3263 33.8325 42.4933 33.5998 42.571L33.599 42.5711ZM35.8221 35.9838H35.8225C35.6175 36.1194 35.3674 36.1682 35.1268 36.119C34.8863 36.0698 34.6746 35.9276 34.5394 35.7226C34.341 35.4221 34.1339 35.1269 33.9177 34.8363C33.6135 34.425 33.7003 33.8451 34.1116 33.5413C34.5229 33.2371 35.1028 33.3239 35.4071 33.7352C35.6414 34.0526 35.8667 34.3742 36.0837 34.7008C36.3661 35.1269 36.2491 35.7015 35.8229 35.9838L35.8221 35.9838Z" fill="#FF9B04"/>
<path d="M44.7831 34.3607C46.6874 35.2593 48.4393 36.4519 49.9736 37.8945V26.8776C49.9736 26.6321 49.8761 26.3964 49.7025 26.2228C49.5289 26.0492 49.2933 25.9517 49.0477 25.9517H37.7535C39.5963 29.5558 42.0339 33.1817 44.7832 34.3602L44.7831 34.3607Z" fill="#FF9B04"/>
</g>
<defs>
<clipPath id="clip0_47_317">
<rect width="50" height="50" fill="white"/>
</clipPath>
</defs>
</svg>
