<svg width="50" height="39" viewBox="0 0 50 39" fill="none" xmlns="http://www.w3.org/2000/svg">
<path d="M12.6831 8.46679L21.4061 1.79015C23.7947 -0.0325968 26.9496 -0.487207 29.7512 0.588561L43.6582 5.92466C44.5641 6.2675 45.5246 6.44161 46.4925 6.43803H48.7807C49.1056 6.4366 49.4173 6.56736 49.6453 6.80021C49.8733 7.03343 49.998 7.34905 49.9908 7.67577V24.778C49.9908 25.4476 49.4515 25.9899 48.7856 25.9899H45.7622C45.3286 25.991 44.9086 26.1415 44.5723 26.4163L43.883 26.9812C43.7059 27.1227 43.4491 27.0951 43.3059 26.9196L27.1007 7.11649C26.9033 6.87396 26.6269 6.70917 26.3208 6.65113C26.0145 6.59274 25.6978 6.64468 25.4256 6.79801L18 10.9838C16.5073 11.8224 14.7108 11.9116 13.1429 11.2249C12.6267 11.0013 12.259 10.5295 12.166 9.97212C12.0731 9.4147 12.2679 8.84792 12.6833 8.46714L12.6831 8.46679ZM1.24304 25.9799H3.8579L5.68116 23.7354C6.40826 22.8495 7.43319 22.2624 8.56214 22.0854C9.69073 21.9081 10.845 22.1534 11.8057 22.7746C12.7665 23.3958 13.4677 24.3499 13.7761 25.4557C15.345 25.8906 16.5745 27.1172 17.0191 28.6914C18.1651 29.0267 19.1394 29.7912 19.7412 30.8279C20.7311 30.9834 21.6453 31.4531 22.351 32.1685C23.0781 32.9355 23.5366 33.92 23.6574 34.9728C23.7781 36.0257 23.5544 37.0893 23.02 38.0025L22.7749 38.4392C22.7646 38.4506 22.7646 38.4686 22.7749 38.4804C23.3588 38.8899 24.0816 39.0475 24.782 38.9182C25.4821 38.7888 26.102 38.3829 26.5031 37.7915C26.9038 37.1997 27.0531 36.4713 26.9167 35.7684C26.9035 35.7419 26.9135 35.7093 26.9391 35.6946C26.9648 35.6796 26.9975 35.6871 27.0139 35.7118L27.2131 35.9071C27.6623 36.3588 28.2529 36.6404 28.8849 36.7038C29.5169 36.7676 30.1514 36.6096 30.6807 36.2564C31.105 35.9587 31.4342 35.5435 31.628 35.0609C31.8222 34.5787 31.8728 34.0503 31.7737 33.5394C31.7606 33.5129 31.7702 33.4803 31.7958 33.4656C31.8215 33.4506 31.8542 33.4581 31.8706 33.4832L32.0698 33.6784V33.6781C32.5187 34.1284 33.1086 34.4093 33.7395 34.473C34.3705 34.5364 35.0038 34.3792 35.5325 34.0274C35.9625 33.7314 36.2967 33.3159 36.4944 32.8312C36.6925 32.3468 36.7448 31.8145 36.6458 31.3004C36.6326 31.2736 36.6426 31.2413 36.6683 31.2263C36.6939 31.2116 36.7267 31.2191 36.7431 31.2438L36.9679 31.4595C37.3932 31.8844 37.9458 32.1563 38.5403 32.2333C39.1349 32.3103 39.738 32.1882 40.2567 31.8858C40.9432 31.4731 41.4102 30.7735 41.5299 29.9781C41.6496 29.1828 41.4091 28.3753 40.8748 27.7771L39.2403 25.7946L26.0328 9.63238C25.8985 9.46722 25.6655 9.42388 25.4813 9.52956L19.169 13.0837C17.1383 14.2283 14.7102 14.416 12.5296 13.5974C11.329 13.174 10.3804 12.2314 9.94537 11.0295C9.59874 9.79539 9.75692 8.47347 10.3846 7.35717C10.4858 7.16873 10.4801 6.94017 10.37 6.75639C10.2599 6.57297 10.0615 6.46156 9.84811 6.46371H1.24264C0.922019 6.46227 0.614222 6.58945 0.387291 6.81694C0.160004 7.04443 0.0324707 7.35323 0.0324707 7.67565V24.7779C0.0378143 25.4453 0.578955 25.9827 1.24268 25.9797L1.24304 25.9799ZM10.4669 24.7525V24.7522C9.98101 24.4788 9.41385 24.3889 8.86775 24.4992C8.32162 24.6092 7.83282 24.9123 7.48946 25.3533L5.71709 27.5411H5.71745C5.33626 28.0107 5.15885 28.6151 5.22512 29.2176C5.29138 29.8202 5.59561 30.3708 6.06978 30.7459L6.34053 30.9565V30.9562C6.6925 31.2349 7.11965 31.4008 7.5667 31.433C8.01379 31.4649 8.45982 31.3613 8.84814 31.136C8.88519 31.1106 8.934 31.1113 8.9707 31.1378C9.00704 31.1643 9.02342 31.2105 9.01131 31.2542C8.93115 31.6637 8.96464 32.0879 9.10892 32.4794C9.2532 32.871 9.50222 33.2145 9.82854 33.4728L10.048 33.6473H10.0483C10.3875 33.916 10.7968 34.0811 11.2268 34.123C11.6568 34.1649 12.0896 34.0818 12.4741 33.8837C12.5125 33.8647 12.5578 33.8683 12.593 33.8927C12.628 33.9174 12.6468 33.9589 12.6426 34.0019C12.5528 34.789 12.8755 35.5667 13.4954 36.0561L13.6486 36.1743C13.9924 36.4448 14.406 36.6106 14.8406 36.6515C15.2752 36.6923 15.7123 36.607 16.1002 36.4054C16.1376 36.3821 16.1847 36.3799 16.2242 36.3996C16.2637 36.4197 16.2901 36.4587 16.294 36.5028C16.3859 37.0699 16.687 37.5815 17.1369 37.9358L17.2338 38.0128C17.7593 38.4266 18.4379 38.5899 19.0927 38.4606C19.7475 38.3316 20.3143 37.9225 20.6456 37.34L20.9776 36.7546C21.2523 36.291 21.3623 35.7476 21.29 35.2131C21.2177 34.6785 20.9669 34.1845 20.579 33.8116C20.2484 33.5103 19.8372 33.3126 19.3962 33.2434C18.9552 33.1739 18.5034 33.2359 18.097 33.4215C18.0752 33.433 18.0489 33.4315 18.0286 33.4176C18.0079 33.4036 17.9972 33.3792 18.0001 33.3545C18.0396 32.5864 17.6908 31.8503 17.0724 31.3974C16.4543 30.9446 15.6502 30.8367 14.9356 31.1101C14.5986 31.1717 14.6702 30.874 14.6702 30.874C14.9092 30.2901 14.896 29.6327 14.6335 29.0591C14.3706 28.4856 13.8822 28.0478 13.2855 27.8515C12.6888 27.6548 12.0375 27.7175 11.4882 28.0234C11.2381 28.0593 11.2688 27.8232 11.2688 27.8232C11.5648 27.3084 11.6467 26.6969 11.4968 26.1215C11.3464 25.5465 10.9763 25.0543 10.4668 24.7519L10.4669 24.7525Z" fill="#FF9B04"/>
</svg>
