<svg width="19" height="22" viewBox="0 0 19 22" fill="none" xmlns="http://www.w3.org/2000/svg">
<path d="M14.662 3.50685H4.33804C4.16691 3.50685 4.00279 3.57452 3.88178 3.69497C3.76077 3.81542 3.69279 3.97878 3.69279 4.14912V9.28728C3.69279 9.45762 3.76077 9.62098 3.88178 9.74143C4.00279 9.86188 4.16691 9.92955 4.33804 9.92955H14.662C14.8331 9.92955 14.9973 9.86188 15.1183 9.74143C15.2393 9.62098 15.3073 9.45762 15.3073 9.28728V4.14912C15.3073 3.97878 15.2393 3.81542 15.1183 3.69497C14.9973 3.57452 14.8331 3.50685 14.662 3.50685ZM14.0168 8.64501H4.98329V4.79139H14.0168V8.64501ZM17.243 0.0814133H1.75705C1.35774 0.0814133 0.97479 0.239304 0.692439 0.520352C0.410088 0.801399 0.251465 1.18258 0.251465 1.58004V20.42C0.251465 20.8174 0.410088 21.1986 0.692439 21.4796C0.97479 21.7607 1.35774 21.9186 1.75705 21.9186H17.243C17.6423 21.9186 18.0253 21.7607 18.3076 21.4796C18.59 21.1986 18.7486 20.8174 18.7486 20.42V1.58004C18.7486 1.18258 18.59 0.801399 18.3076 0.520352C18.0253 0.239304 17.6423 0.0814133 17.243 0.0814133ZM17.4581 20.42C17.4581 20.4767 17.4354 20.5312 17.3951 20.5713C17.3548 20.6115 17.3001 20.634 17.243 20.634H1.75705C1.7 20.634 1.64529 20.6115 1.60496 20.5713C1.56462 20.5312 1.54196 20.4767 1.54196 20.42V1.58004C1.54196 1.52326 1.56462 1.46881 1.60496 1.42866C1.64529 1.38851 1.7 1.36595 1.75705 1.36595H17.243C17.3001 1.36595 17.3548 1.38851 17.3951 1.42866C17.4354 1.46881 17.4581 1.52326 17.4581 1.58004V20.42ZM10.5754 13.1409C10.5754 13.3526 10.5124 13.5596 10.3942 13.7356C10.276 13.9116 10.1081 14.0488 9.91157 14.1299C9.71507 14.2109 9.49884 14.2321 9.29023 14.1908C9.08162 14.1495 8.89 14.0475 8.7396 13.8978C8.5892 13.7481 8.48677 13.5574 8.44528 13.3497C8.40378 13.1421 8.42508 12.9269 8.50648 12.7313C8.58787 12.5357 8.72571 12.3685 8.90256 12.2509C9.07941 12.1332 9.28733 12.0704 9.50003 12.0704C9.78525 12.0704 10.0588 12.1832 10.2605 12.384C10.4621 12.5847 10.5754 12.857 10.5754 13.1409ZM10.5754 17.4227C10.5754 17.6344 10.5124 17.8414 10.3942 18.0174C10.276 18.1934 10.1081 18.3306 9.91157 18.4117C9.71507 18.4927 9.49884 18.5139 9.29023 18.4726C9.08162 18.4313 8.89 18.3293 8.7396 18.1796C8.5892 18.0299 8.48677 17.8392 8.44528 17.6315C8.40378 17.4239 8.42508 17.2087 8.50648 17.0131C8.58787 16.8175 8.72571 16.6503 8.90256 16.5326C9.07941 16.415 9.28733 16.3522 9.50003 16.3522C9.78525 16.3522 10.0588 16.465 10.2605 16.6658C10.4621 16.8665 10.5754 17.1388 10.5754 17.4227ZM6.27379 13.1409C6.27379 13.3526 6.21071 13.5596 6.09255 13.7356C5.97438 13.9116 5.80642 14.0488 5.60991 14.1299C5.41341 14.2109 5.19718 14.2321 4.98857 14.1908C4.77996 14.1495 4.58834 14.0475 4.43794 13.8978C4.28754 13.7481 4.18512 13.5574 4.14362 13.3497C4.10213 13.1421 4.12342 12.9269 4.20482 12.7313C4.28621 12.5357 4.42405 12.3685 4.6009 12.2509C4.77775 12.1332 4.98567 12.0704 5.19837 12.0704C5.48359 12.0704 5.75712 12.1832 5.9588 12.384C6.16048 12.5847 6.27379 12.857 6.27379 13.1409ZM6.27379 17.4227C6.27379 17.6344 6.21071 17.8414 6.09255 18.0174C5.97438 18.1934 5.80642 18.3306 5.60991 18.4117C5.41341 18.4927 5.19718 18.5139 4.98857 18.4726C4.77996 18.4313 4.58834 18.3293 4.43794 18.1796C4.28754 18.0299 4.18512 17.8392 4.14362 17.6315C4.10213 17.4239 4.12342 17.2087 4.20482 17.0131C4.28621 16.8175 4.42405 16.6503 4.6009 16.5326C4.77775 16.415 4.98567 16.3522 5.19837 16.3522C5.48359 16.3522 5.75712 16.465 5.9588 16.6658C6.16048 16.8665 6.27379 17.1388 6.27379 17.4227ZM14.8771 13.1409C14.8771 13.3526 14.814 13.5596 14.6959 13.7356C14.5777 13.9116 14.4097 14.0488 14.2132 14.1299C14.0167 14.2109 13.8005 14.2321 13.5919 14.1908C13.3833 14.1495 13.1917 14.0475 13.0413 13.8978C12.8909 13.7481 12.7884 13.5574 12.7469 13.3497C12.7054 13.1421 12.7267 12.9269 12.8081 12.7313C12.8895 12.5357 13.0274 12.3685 13.2042 12.2509C13.3811 12.1332 13.589 12.0704 13.8017 12.0704C14.0869 12.0704 14.3604 12.1832 14.5621 12.384C14.7638 12.5847 14.8771 12.857 14.8771 13.1409ZM14.8771 17.4227C14.8771 17.6344 14.814 17.8414 14.6959 18.0174C14.5777 18.1934 14.4097 18.3306 14.2132 18.4117C14.0167 18.4927 13.8005 18.5139 13.5919 18.4726C13.3833 18.4313 13.1917 18.3293 13.0413 18.1796C12.8909 18.0299 12.7884 17.8392 12.7469 17.6315C12.7054 17.4239 12.7267 17.2087 12.8081 17.0131C12.8895 16.8175 13.0274 16.6503 13.2042 16.5326C13.3811 16.415 13.589 16.3522 13.8017 16.3522C14.0869 16.3522 14.3604 16.465 14.5621 16.6658C14.7638 16.8665 14.8771 17.1388 14.8771 17.4227Z" fill="#222222"/>
</svg>
