<svg width="60" height="40" viewBox="0 0 60 40" fill="none" xmlns="http://www.w3.org/2000/svg">
<path d="M18.7486 21.6268L18.8863 21.0559C18.97 20.7091 18.9064 20.3549 18.7074 20.0578C18.5085 19.7608 18.2037 19.5654 17.8489 19.5076L13.8792 18.8597C13.3674 18.7766 12.859 19.0045 12.5846 19.4418L11.9941 20.3828L18.7486 21.6268Z" fill="#FF9B04"/>
<path d="M7.07825 1.44769C7.07825 1.17821 7.29864 0.959581 7.57028 0.959581H21.0905C22.4883 0.959581 23.7054 1.89789 24.0507 3.24126L26.8234 14.0279L22.0575 15.8215C21.8036 15.9172 21.6757 16.1989 21.7721 16.4508C21.8468 16.6458 22.0337 16.7658 22.2323 16.7658C22.2903 16.7658 22.3492 16.7555 22.4068 16.7339L24.176 16.068L25.5502 19.3697L27.0605 18.8999L26.1421 15.3277L27.0678 14.9791L29.7367 25.3608L30.6892 25.1156L25.0039 3.00058C24.5474 1.22459 22.9379 -0.0161133 21.0904 -0.0161133H6.58578C6.31447 -0.0161133 6.09375 0.202851 6.09375 0.471993V19.296L7.07784 19.4771L7.07825 1.44769Z" fill="#FF9B04"/>
<path d="M13.7108 17.8672L14.6862 16.4215C14.856 16.1696 14.9166 15.8669 14.8567 15.5695C14.7967 15.2721 14.6235 15.0163 14.3687 14.8488L12.7258 13.7679C12.5402 13.6457 12.3724 13.7214 12.3088 13.7596C12.2455 13.7978 12.1005 13.9105 12.1236 14.1301L12.552 18.1599C12.9003 17.9629 13.2992 17.8592 13.7108 17.8672Z" fill="#FF9B04"/>
<path d="M37.5215 21.1319C37.7861 21.0727 37.9532 20.8112 37.8936 20.5484C37.8339 20.2859 37.5697 20.1208 37.3057 20.1792L30.8086 21.6283L31.0518 22.5746L37.5215 21.1319Z" fill="#FF9B04"/>
<path d="M35.5124 4.57173C35.5124 4.49498 35.5305 4.41955 35.5657 4.3511L36.7366 2.05615H34.0527V9.32088H35.5124L35.5124 4.57173Z" fill="#FF9B04"/>
<path d="M42.3038 26.9624L41.293 26.4321V31.4633L42.3038 30.933V26.9624Z" fill="#FF9B04"/>
<path d="M25.7598 20.3276V23.7546L28.1707 23.217L27.3045 19.8472L25.7598 20.3276Z" fill="#FF9B04"/>
<path d="M59.4259 38.1677L43.666 37.2944L44.5871 39.418H59.3901C59.7378 39.418 60.0208 39.1372 60.0208 38.7923C60.0208 38.4604 59.7592 38.1859 59.4253 38.1676L59.4259 38.1677Z" fill="#FF9B04"/>
<path d="M30.7952 29.4286V28.457L28.8419 28.9598L25.9336 32.7835V34.5077H26.9666C27.1571 32.1865 28.6912 30.2374 30.7952 29.4286Z" fill="#FF9B04"/>
<path d="M32.9628 30.0029C30.1875 30.0029 27.9297 32.2428 27.9297 34.9959C27.9297 37.7491 30.1875 39.9889 32.9628 39.9889C35.7381 39.9889 37.996 37.7491 37.996 34.9959C37.996 32.2428 35.7381 30.0029 32.9628 30.0029ZM32.9628 36.9483C31.8759 36.9483 30.9951 36.0745 30.9951 34.9963C30.9951 33.918 31.8759 33.0442 32.9628 33.0442C34.0497 33.0442 34.9306 33.918 34.9306 34.9963C34.9309 36.0742 34.0497 36.9483 32.9628 36.9483Z" fill="#FF9B04"/>
<path d="M36.4961 4.68875V19.3592L37.0899 19.2267C37.8834 19.0492 38.6749 19.5463 38.8537 20.3338C39.0322 21.1216 38.5315 21.9064 37.7377 22.0835L36.4963 22.3603V30.1683C37.9999 31.2546 38.9796 33.0132 38.9796 34.9952C38.9796 35.7933 38.8198 36.5545 38.5321 37.2507H40.3083L40.308 2.05664H37.8391L36.4961 4.68875Z" fill="#FF9B04"/>
<path d="M28.4295 28.0575L33.5434 26.7414L33.2376 25.4688L27.5118 26.9424L24.5044 30.8967C24.4113 31.019 24.2659 31.0907 24.1115 31.0907H20.2027C19.9311 31.0907 19.7107 30.8721 19.7107 30.6026V22.7969L5.55764 20.1899H0V36.3124H0.994813C1.24669 33.0784 3.97976 30.5236 7.30341 30.5236C10.6267 30.5236 13.3602 33.0784 13.612 36.3124H24.9509V32.6199C24.9509 32.5139 24.9857 32.4106 25.0501 32.3259L28.161 28.236C28.2273 28.1479 28.3224 28.0851 28.4296 28.0575L28.4295 28.0575Z" fill="#FF9B04"/>
<path d="M3.77349 32.8261L4.6105 33.6096C5.34001 33.0029 6.27919 32.6367 7.30307 32.6367C8.32695 32.6367 9.2662 33.0028 9.99563 33.6096L10.8326 32.8261C9.89048 32.0017 8.6549 31.5 7.30304 31.5C5.95119 31.5 4.71565 32.0017 3.77349 32.8261Z" fill="#FF9B04"/>
<path d="M44.3211 20.1426H41.293V25.3283L43.0263 26.2375C43.1874 26.3219 43.2882 26.488 43.2882 26.6687V31.2272C43.2882 31.4079 43.1874 31.5741 43.0263 31.6585L41.293 32.5676V34.5725L43.109 36.286L44.3212 36.3532L44.3211 20.1426Z" fill="#FF9B04"/>
<path d="M20.6953 30.1149H23.8668L26.8301 26.219C26.8971 26.131 26.9919 26.0682 27.0991 26.0406L28.7862 25.6063L28.4151 24.1636L20.6954 25.8854L20.6953 30.1149Z" fill="#FF9B04"/>
<path d="M7.30356 33.6128C5.53173 33.6128 4.08984 35.0428 4.08984 36.8009C4.08984 38.5586 5.53139 39.989 7.30356 39.989C9.0754 39.989 10.5173 38.5589 10.5173 36.8009C10.5173 35.0428 9.07574 33.6128 7.30356 33.6128ZM7.30356 38.2297C6.50808 38.2297 5.86331 37.59 5.86331 36.8009C5.86331 36.0117 6.50806 35.3721 7.30356 35.3721C8.09906 35.3721 8.74382 36.0117 8.74382 36.8009C8.74382 37.59 8.09906 38.2297 7.30356 38.2297Z" fill="#FF9B04"/>
</svg>
