<svg width="16" height="18" viewBox="0 0 16 18" fill="none" xmlns="http://www.w3.org/2000/svg">
<path d="M15.5 15.6667V4.00002C15.5 3.08085 14.7525 2.33335 13.8333 2.33335H12.1667V0.666687H10.5V2.33335H5.5V0.666687H3.83333V2.33335H2.16667C1.2475 2.33335 0.5 3.08085 0.5 4.00002V15.6667C0.5 16.5859 1.2475 17.3334 2.16667 17.3334H13.8333C14.7525 17.3334 15.5 16.5859 15.5 15.6667ZM5.5 14H3.83333V12.3334H5.5V14ZM5.5 10.6667H3.83333V9.00002H5.5V10.6667ZM8.83333 14H7.16667V12.3334H8.83333V14ZM8.83333 10.6667H7.16667V9.00002H8.83333V10.6667ZM12.1667 14H10.5V12.3334H12.1667V14ZM12.1667 10.6667H10.5V9.00002H12.1667V10.6667ZM13.8333 6.50002H2.16667V4.83335H13.8333V6.50002Z" fill="#CCCCCC"/>
</svg>
