<svg width="20" height="20" viewBox="0 0 20 20" fill="none" xmlns="http://www.w3.org/2000/svg">
<path d="M19.7249 18.8902L14.9136 14.0785C16.2042 12.5946 16.9856 10.6585 16.9856 8.54244C16.9856 3.88439 13.1971 0.0999985 8.54385 0.0999985C3.88615 0.0999985 0.102051 3.88878 0.102051 8.54244C0.102051 13.1961 3.89054 16.9849 8.54385 16.9849C10.6598 16.9849 12.5957 16.2034 14.0795 14.9127L18.8909 19.7244C19.005 19.8385 19.1586 19.9 19.3079 19.9C19.4572 19.9 19.6108 19.8429 19.7249 19.7244C19.9532 19.4961 19.9532 19.1185 19.7249 18.8902ZM1.28294 8.54244C1.28294 4.53854 4.54025 1.28536 8.53946 1.28536C12.5431 1.28536 15.796 4.54293 15.796 8.54244C15.796 12.5419 12.5431 15.8039 8.53946 15.8039C4.54025 15.8039 1.28294 12.5463 1.28294 8.54244Z" fill="#222222" stroke="#222222" stroke-width="0.2"/>
</svg>
