<svg width="16" height="10" viewBox="0 0 16 10" fill="none" xmlns="http://www.w3.org/2000/svg">
<path d="M1 4.4C0.668629 4.4 0.4 4.66863 0.4 5C0.4 5.33137 0.668629 5.6 1 5.6V4.4ZM15.4243 5.42426C15.6586 5.18995 15.6586 4.81005 15.4243 4.57574L11.6059 0.757359C11.3716 0.523045 10.9917 0.523045 10.7574 0.757359C10.523 0.991674 10.523 1.37157 10.7574 1.60589L14.1515 5L10.7574 8.39411C10.523 8.62843 10.523 9.00833 10.7574 9.24264C10.9917 9.47696 11.3716 9.47696 11.6059 9.24264L15.4243 5.42426ZM1 5.6H15V4.4H1V5.6Z" fill="#222222"/>
</svg>
