<svg width="220" height="84" viewBox="0 0 220 84" fill="none" xmlns="http://www.w3.org/2000/svg">
<path d="M6.71844 37.498H11.8505V42.5862C11.8816 43.1564 11.7722 43.7255 11.5316 44.2441C11.291 44.7626 10.9266 45.2149 10.4701 45.5618C9.54609 46.2549 8.18422 46.6015 6.38447 46.6015C4.58101 46.6015 3.22284 46.2531 2.29885 45.5618C1.84057 45.2162 1.47458 44.7642 1.23294 44.2455C0.991308 43.7267 0.881402 43.157 0.912855 42.5862V34.2902C0.882373 33.7196 0.992714 33.1502 1.23428 32.6316C1.47584 32.113 1.8413 31.6609 2.29885 31.3147C3.22284 30.6234 4.58101 30.2805 6.38447 30.2805C8.18793 30.2805 9.54609 30.6234 10.4701 31.3147C10.9259 31.6622 11.2898 32.1146 11.5303 32.633C11.7708 33.1514 11.8807 33.7202 11.8505 34.2902V35.8388H8.38275V34.1022C8.40705 33.8724 8.37231 33.6403 8.28178 33.4275C8.19125 33.2147 8.04788 33.0282 7.86509 32.8854C7.45238 32.6295 6.97045 32.506 6.48466 32.5315C5.99714 32.5063 5.51352 32.6298 5.09867 32.8854C4.91587 33.0282 4.77251 33.2147 4.68198 33.4275C4.59145 33.6403 4.55671 33.8724 4.58101 34.1022V42.719C4.55554 42.948 4.58978 43.1797 4.68044 43.3919C4.77109 43.604 4.91511 43.7893 5.09867 43.9302C5.51676 44.1772 5.9988 44.2965 6.48466 44.2731C6.96875 44.2964 7.44898 44.1771 7.86509 43.9302C8.04864 43.7893 8.19266 43.604 8.28332 43.3919C8.37397 43.1797 8.40821 42.948 8.38275 42.719V39.7822H6.71288L6.71844 37.498Z" fill="#FF9B04"/>
<path d="M21.892 46.3914C21.8475 46.2881 21.803 46.1886 21.7584 46.0927C21.707 45.983 21.6678 45.868 21.6415 45.7498C21.6033 45.5789 21.5809 45.4049 21.5747 45.2299C21.5747 45.0142 21.5747 44.7487 21.5747 44.428V41.9226C21.6075 41.636 21.5744 41.3457 21.478 41.0737C21.3816 40.8016 21.2243 40.5548 21.0181 40.3519C20.4758 40.0013 19.8316 39.8398 19.1868 39.8928H17.8899V46.3914H14.2217V30.4187H19.7546C21.6694 30.4187 23.0535 30.7229 23.907 31.3313C24.339 31.6468 24.6835 32.0658 24.9084 32.5494C25.1332 33.033 25.2311 33.5653 25.1928 34.0967V35.3521C25.2413 36.0826 25.0307 36.8068 24.5974 37.399C24.1642 37.9911 23.5358 38.4136 22.8216 38.5931C23.6022 38.7497 24.2898 39.2045 24.7364 39.8596C25.0981 40.5104 25.2769 41.2459 25.254 41.9889V44.4556C25.2509 44.8015 25.2733 45.1472 25.3208 45.4899C25.3731 45.8088 25.4865 46.1148 25.6548 46.3914H21.892ZM17.8899 32.714V37.6086H19.3204C19.884 37.639 20.445 37.5126 20.9402 37.2436C21.1419 37.0965 21.3018 36.8999 21.4042 36.6731C21.5066 36.4463 21.5481 36.1969 21.5246 35.9494V34.3566C21.5464 34.1273 21.5172 33.8961 21.4394 33.6792C21.3615 33.4623 21.2367 33.265 21.0738 33.1011C20.6619 32.8087 20.1588 32.6715 19.6544 32.714H17.8899Z" fill="#FF9B04"/>
<path d="M39.5203 46.3914H35.7965L35.1619 43.4933H30.6644L30.0577 46.3914H26.6623L30.3972 30.4187H35.7631L39.5203 46.3914ZM31.1709 41.3308H34.7111L32.8965 33.2615L31.1709 41.3308Z" fill="#FF9B04"/>
<path d="M44.4687 34.8433V46.4024H41.1902V30.4187H45.7935L49.5395 39.9868V30.4187H52.8069V46.3914H49.0386L44.4687 34.8433Z" fill="#FF9B04"/>
<path d="M55.4397 30.4187H61.2286C63.084 30.4187 64.457 30.7524 65.3476 31.4198C65.7979 31.7627 66.1563 32.2105 66.3913 32.7237C66.6262 33.2368 66.7304 33.7995 66.6946 34.3621V42.448C66.7294 43.0105 66.6248 43.5729 66.3899 44.0858C66.1551 44.5988 65.7972 45.0467 65.3476 45.3903C64.4459 46.054 63.071 46.3914 61.2286 46.3914H55.4397V30.4187ZM59.1079 32.6974V44.1127H61.1785C61.6575 44.1385 62.1332 44.0189 62.5422 43.7698C62.7215 43.6261 62.8614 43.4397 62.949 43.228C63.0366 43.0163 63.069 42.7861 63.0432 42.5586V34.2902C63.068 34.0636 63.0351 33.8345 62.9476 33.6238C62.8601 33.4132 62.7207 33.2277 62.5422 33.0845C62.1343 32.8328 61.6578 32.713 61.1785 32.7416L59.1079 32.6974Z" fill="#FF9B04"/>
<path d="M69.0492 30.4187H72.7173V44.1127H78.7511V46.3914H69.0492V30.4187Z" fill="#FF9B04"/>
<path d="M84.0892 37.1606H89.1266V39.4393H84.0892V44.1127H90.4235V46.3914H80.4043V30.4187H90.4235V32.6974H84.0892V37.1606Z" fill="#FF9B04"/>
<path d="M92.227 34.2902C92.1958 33.7234 92.3018 33.1574 92.5362 32.6396C92.7706 32.1219 93.1265 31.6676 93.574 31.3147C94.4758 30.6252 95.8265 30.2805 97.6263 30.2805C99.426 30.2805 100.777 30.6252 101.678 31.3147C102.128 31.6664 102.485 32.1203 102.721 32.6383C102.956 33.1562 103.063 33.7228 103.031 34.2902V34.9041H99.5633V34.1298C99.5875 33.9032 99.5561 33.6742 99.4718 33.4623C99.3874 33.2504 99.2527 33.0619 99.079 32.9131C98.6676 32.6809 98.2024 32.5588 97.7292 32.5588C97.256 32.5588 96.7909 32.6809 96.3794 32.9131C96.2058 33.0619 96.071 33.2504 95.9867 33.4623C95.9023 33.6742 95.8709 33.9032 95.8952 34.1298C95.8956 34.6643 96.0937 35.18 96.4518 35.5789C96.8411 36.0296 97.2884 36.4275 97.7821 36.7624C98.3387 37.1385 98.8954 37.5091 99.5021 37.8686C100.103 38.2339 100.676 38.6424 101.216 39.0909C101.739 39.5186 102.19 40.0264 102.552 40.5952C102.925 41.1885 103.119 41.8758 103.109 42.5752C103.14 43.146 103.031 43.7157 102.789 44.2344C102.547 44.7532 102.181 45.2051 101.723 45.5507C100.806 46.2439 99.4446 46.5905 97.6374 46.5905C95.8302 46.5905 94.4554 46.2383 93.5128 45.5341C93.0593 45.1906 92.6962 44.743 92.4549 44.2296C92.2135 43.7162 92.1009 43.1523 92.1268 42.5862V41.4801H95.5946V42.73C95.5691 42.9591 95.6034 43.1908 95.694 43.4029C95.7847 43.615 95.9287 43.8004 96.1122 43.9413C96.5402 44.1693 97.0182 44.2886 97.5038 44.2886C97.9894 44.2886 98.4674 44.1693 98.8954 43.9413C99.0789 43.8004 99.2229 43.615 99.3136 43.4029C99.4042 43.1908 99.4385 42.9591 99.413 42.73C99.4133 42.1971 99.2151 41.6829 98.8564 41.2865C98.4637 40.8354 98.0148 40.4358 97.5205 40.0974C96.9639 39.7269 96.4072 39.3563 95.8061 38.9913C95.2046 38.6265 94.6298 38.22 94.0861 37.7746C93.5647 37.3469 93.1156 36.839 92.7558 36.2702C92.3929 35.6739 92.2095 34.9868 92.227 34.2902Z" fill="#FF9B04"/>
<path d="M112.933 41.7622L115.438 30.4187H120.537V46.3914H117.069V34.9484L114.536 46.3914H111.069L108.336 35.1088V46.3914H105.13V30.4187H110.211L112.933 41.7622Z" fill="#FF9B04"/>
<path d="M135.081 46.3914H131.363L130.729 43.4933H126.242L125.608 46.3914H122.268L125.975 30.4187H131.363L135.081 46.3914ZM126.732 41.3308H130.25L128.48 33.2615L126.732 41.3308Z" fill="#FF9B04"/>
<path d="M144.449 46.3914C144.405 46.2881 144.36 46.1886 144.316 46.0927C144.264 45.983 144.225 45.868 144.199 45.7498C144.161 45.5789 144.138 45.4049 144.132 45.2299C144.132 45.0142 144.132 44.7487 144.132 44.428V41.9226C144.164 41.636 144.13 41.3462 144.034 41.0743C143.937 40.8024 143.781 40.5555 143.576 40.3519C143.032 40.0005 142.385 39.8389 141.739 39.8928H140.47V46.3914H136.801V30.4187H142.368C144.279 30.4187 145.663 30.7229 146.52 31.3313C146.951 31.6474 147.295 32.0667 147.518 32.5503C147.742 33.0338 147.839 33.5658 147.8 34.0967V35.3521C147.847 36.0856 147.632 36.8121 147.194 37.4039C146.755 37.9956 146.12 38.4147 145.401 38.5876C146.184 38.7428 146.874 39.1978 147.322 39.8541C147.681 40.5058 147.859 41.2406 147.839 41.9834V44.4501C147.835 44.7958 147.855 45.1415 147.901 45.4843C147.953 45.8033 148.066 46.1093 148.235 46.3858L144.449 46.3914ZM140.447 32.714V37.6086H141.883C142.447 37.639 143.008 37.5126 143.503 37.2436C143.704 37.0958 143.863 36.8991 143.966 36.6724C144.068 36.4458 144.11 36.1968 144.088 35.9494V34.3566C144.109 34.1273 144.08 33.8961 144.002 33.6792C143.924 33.4623 143.8 33.265 143.637 33.1011C143.225 32.8087 142.722 32.6715 142.217 32.714H140.447Z" fill="#FF9B04"/>
<path d="M154.992 40.0311L153.879 41.4912V46.3914H150.211V30.4187H153.879V37.3874L158.727 30.4187H162.328L157.224 37.5312L162.328 46.3803H158.56L154.992 40.0311Z" fill="#FF9B04"/>
<path d="M167.661 37.1606H172.698V39.4393H167.661V44.1127H174.001V46.3914H163.981V30.4187H174.001V32.6974H167.661V37.1606Z" fill="#FF9B04"/>
<path d="M175.264 30.4187H186.603V32.6974H182.773V46.3914H179.099V32.714H175.264V30.4187Z" fill="#FF9B04"/>
<path d="M191.807 43.9744V46.3914H188.272V43.9744H191.807Z" fill="#FF9B04"/>
<path d="M202.143 46.3914L202.01 46.0927C201.961 45.9821 201.922 45.8673 201.893 45.7498C201.854 45.5791 201.834 45.4049 201.832 45.2299C201.832 45.0142 201.832 44.7487 201.832 44.428V41.9226C201.864 41.636 201.831 41.3457 201.735 41.0737C201.639 40.8016 201.481 40.5548 201.275 40.3519C200.731 40.0005 200.085 39.8389 199.438 39.8928H198.158V46.3914H194.49V30.4187H200.028C201.939 30.4187 203.323 30.7229 204.181 31.3313C204.613 31.6468 204.957 32.0658 205.182 32.5494C205.407 33.033 205.505 33.5653 205.466 34.0967V35.3521C205.512 36.0862 205.296 36.8127 204.856 37.4043C204.417 37.9959 203.781 38.4148 203.062 38.5876C203.845 38.7428 204.534 39.1978 204.982 39.8541C205.344 40.5048 205.523 41.2403 205.5 41.9834V44.4501C205.494 44.7961 205.516 45.1419 205.567 45.4843C205.617 45.803 205.728 46.1091 205.895 46.3858L202.143 46.3914ZM198.158 32.714V37.6086H199.594C200.158 37.639 200.719 37.5126 201.214 37.2436C201.412 37.0939 201.568 36.8964 201.667 36.6699C201.766 36.4434 201.806 36.1953 201.782 35.9494V34.3566C201.803 34.1273 201.774 33.8961 201.696 33.6792C201.618 33.4623 201.494 33.265 201.331 33.1011C200.919 32.8087 200.416 32.6715 199.911 32.714H198.158Z" fill="#FF9B04"/>
<path d="M211.383 30.4187V42.7411C211.358 42.9702 211.392 43.2019 211.483 43.414C211.574 43.6261 211.718 43.8115 211.901 43.9523C212.329 44.1803 212.807 44.2997 213.293 44.2997C213.778 44.2997 214.256 44.1803 214.684 43.9523C214.868 43.8115 215.012 43.6261 215.102 43.414C215.193 43.2019 215.227 42.9702 215.202 42.7411V30.4187H218.67V42.5862C218.7 43.1555 218.59 43.7235 218.349 44.241C218.109 44.7585 217.745 45.21 217.289 45.5562C216.365 46.2531 215.001 46.596 213.204 46.596C211.406 46.596 210.036 46.2531 209.118 45.5562C208.657 45.213 208.289 44.7627 208.044 44.2449C207.8 43.7271 207.687 43.1575 207.715 42.5862V30.4187H211.383Z" fill="#FF9B04"/>
<path d="M35.0673 54.3168H33.787V49.4609H37.778V54.3168H36.4867V50.1522H35.0673V54.3168Z" fill="#2B1A01"/>
<path d="M42.3034 54.3168H40.9897V49.4609H42.103V52.3645L43.4166 49.4609H45.003V54.3168H43.8898V50.7993L42.3034 54.3168Z" fill="#2B1A01"/>
<path d="M51.766 50.1522H50.2965V53.0945C50.3101 53.2939 50.2646 53.4928 50.1657 53.6668C50.0668 53.8408 49.9188 53.9821 49.7399 54.0735C49.5649 54.1635 49.3773 54.2269 49.1833 54.2615C48.9572 54.3 48.728 54.3185 48.4986 54.3168H48.1869H47.8864V53.6476H48.3261C48.501 53.6528 48.6752 53.6227 48.8382 53.5591C48.909 53.5268 48.9677 53.473 49.0057 53.4054C49.0438 53.3378 49.0592 53.2599 49.0497 53.183V49.4609H53.0463V54.3168H51.766V50.1522Z" fill="#2B1A01"/>
<path d="M56.1299 50.6223C56.1241 50.4418 56.1669 50.263 56.254 50.1045C56.3411 49.946 56.4693 49.8135 56.6253 49.7208C57.071 49.5119 57.5576 49.4036 58.0503 49.4036C58.543 49.4036 59.0296 49.5119 59.4753 49.7208C59.6313 49.8135 59.7595 49.946 59.8466 50.1045C59.9337 50.263 59.9765 50.4418 59.9707 50.6223V53.1498C59.977 53.3312 59.9344 53.5109 59.8472 53.6704C59.7601 53.8299 59.6317 53.9633 59.4753 54.0569C59.0296 54.2658 58.543 54.3741 58.0503 54.3741C57.5576 54.3741 57.071 54.2658 56.6253 54.0569C56.4689 53.9633 56.3404 53.8299 56.2533 53.6704C56.1662 53.5109 56.1236 53.3312 56.1299 53.1498V50.6223ZM57.3935 53.1996C57.3877 53.2715 57.4011 53.3436 57.4324 53.4087C57.4637 53.4738 57.5117 53.5295 57.5716 53.5702C57.7211 53.6409 57.8847 53.6777 58.0503 53.6777C58.2159 53.6777 58.3795 53.6409 58.529 53.5702C58.5889 53.5295 58.6369 53.4738 58.6682 53.4087C58.6995 53.3436 58.7129 53.2715 58.7071 53.1996V50.5781C58.7139 50.5053 58.701 50.432 58.6697 50.3659C58.6384 50.2998 58.5898 50.2432 58.529 50.202C58.3795 50.1312 58.2159 50.0945 58.0503 50.0945C57.8847 50.0945 57.7211 50.1312 57.5716 50.202C57.5108 50.2432 57.4622 50.2998 57.4309 50.3659C57.3996 50.432 57.3867 50.5053 57.3935 50.5781V53.1996Z" fill="#2B1A01"/>
<path d="M65.7596 52.9065L66.6168 49.4609H68.3757V54.3168H67.1845V50.8325L66.3106 54.3168H65.125L64.1732 50.8823V54.3168H63.0599V49.4609H64.8133L65.7596 52.9065Z" fill="#2B1A01"/>
<path d="M75.7008 54.3168H74.4261L74.2035 53.4319H72.6561L72.439 54.3168H71.2478L72.5336 49.4609H74.3816L75.7008 54.3168ZM72.8175 52.7738H74.0309L73.3964 50.3292L72.8175 52.7738Z" fill="#2B1A01"/>
<path d="M78.2001 49.4609H82.0965V50.1522H80.7773V54.3168H79.5137V50.1522H78.1945L78.2001 49.4609Z" fill="#2B1A01"/>
<path d="M86.2377 51.5072H87.9744V52.1986H86.2377V53.6476H88.4197V54.3445H84.9742V49.4609H88.4197V50.1522H86.2377V51.5072Z" fill="#2B1A01"/>
<path d="M93.3235 49.4609C93.8162 49.4253 94.3088 49.5309 94.7429 49.7651C94.8933 49.8603 95.0158 49.9933 95.0979 50.1506C95.18 50.308 95.2188 50.484 95.2105 50.661V51.2915C95.2188 51.4686 95.18 51.6446 95.0979 51.802C95.0158 51.9593 94.8933 52.0923 94.7429 52.1875C94.3079 52.4191 93.816 52.5245 93.3235 52.4917H92.7279V54.3168H91.4644V49.4609H93.3235ZM92.7279 50.1522V51.8114H93.3235C93.4831 51.8196 93.6421 51.7872 93.7855 51.7174C93.8419 51.6769 93.8865 51.6223 93.9149 51.5592C93.9432 51.4961 93.9543 51.4267 93.947 51.3579V50.6113C93.9555 50.5424 93.9449 50.4726 93.9165 50.4093C93.8881 50.3459 93.8428 50.2915 93.7855 50.2518C93.6437 50.1771 93.4838 50.1426 93.3235 50.1522H92.7279Z" fill="#2B1A01"/>
<path d="M99.3796 54.3168H98.0827V49.4609H99.196V52.3645L100.493 49.4609H102.079V54.3168H100.966V50.7993L99.3796 54.3168Z" fill="#2B1A01"/>
<path d="M109.388 54.3168H108.107L107.89 53.4319H106.343L106.12 54.3168H104.963L106.248 49.4609H108.096L109.388 54.3168ZM106.499 52.7738H107.718L107.111 50.3292L106.499 52.7738Z" fill="#2B1A01"/>
<path d="M115.806 50.1522H114.336V53.0946C114.35 53.2939 114.304 53.4928 114.205 53.6668C114.106 53.8408 113.958 53.9821 113.779 54.0735C113.604 54.1635 113.417 54.2269 113.223 54.2615C112.997 54.2996 112.768 54.3181 112.538 54.3168H112.226H111.926V53.6476H112.366C112.541 53.6528 112.715 53.6227 112.878 53.5591C112.949 53.5268 113.007 53.473 113.045 53.4054C113.083 53.3378 113.099 53.2599 113.089 53.183V49.4609H117.086V54.3168H115.822L115.806 50.1522Z" fill="#2B1A01"/>
<path d="M120.286 54.3168V49.4609H121.55V51.2805H122.145C122.639 51.2479 123.131 51.3553 123.565 51.5902C123.716 51.6837 123.839 51.8156 123.921 51.9721C124.003 52.1287 124.042 52.3043 124.032 52.4806V53.0945C124.042 53.2709 124.003 53.4465 123.921 53.6031C123.839 53.7596 123.716 53.8915 123.565 53.985C123.131 54.2199 122.639 54.3273 122.145 54.2947L120.286 54.3168ZM122.145 53.6476C122.305 53.6553 122.464 53.6229 122.607 53.5536C122.664 53.5122 122.709 53.4567 122.737 53.3926C122.766 53.3285 122.777 53.2581 122.769 53.1886V52.4364C122.777 52.3676 122.767 52.2977 122.738 52.2344C122.71 52.171 122.665 52.1166 122.607 52.0769C122.465 52.003 122.306 51.9686 122.145 51.9774H121.55V53.6366L122.145 53.6476ZM124.65 49.4885H125.914V54.3445H124.65V49.4885Z" fill="#2B1A01"/>
<path d="M135.115 49.4609C135.608 49.4252 136.102 49.5206 136.545 49.7374C136.689 49.8243 136.807 49.9484 136.885 50.0965C136.964 50.2446 137 50.411 136.991 50.5781V50.7495C136.999 50.9729 136.928 51.1921 136.79 51.369C136.628 51.551 136.412 51.6769 136.172 51.7285C136.452 51.7711 136.708 51.9055 136.902 52.1101C137.045 52.2995 137.119 52.5314 137.113 52.7682V53.1609C137.12 53.3343 137.078 53.5061 136.993 53.6574C136.907 53.8087 136.781 53.9336 136.629 54.0182C136.188 54.2455 135.694 54.3487 135.198 54.3168H133.211V49.4609H135.115ZM134.475 50.1522V51.4353H134.965C135.156 51.4442 135.348 51.4063 135.521 51.3247C135.59 51.2835 135.646 51.2237 135.683 51.1523C135.719 51.0809 135.734 51.0007 135.727 50.921V50.65C135.732 50.5788 135.72 50.5074 135.693 50.4413C135.666 50.3752 135.625 50.316 135.571 50.2684C135.424 50.1798 135.253 50.1392 135.081 50.1522H134.475ZM134.475 52.1267V53.6476H135.198C135.366 53.6585 135.534 53.6221 135.683 53.5425C135.741 53.5013 135.788 53.4452 135.817 53.38C135.847 53.3148 135.858 53.2429 135.85 53.172V52.7461C135.861 52.6591 135.849 52.5707 135.816 52.4894C135.783 52.4081 135.729 52.3365 135.66 52.2815C135.468 52.1827 135.253 52.1386 135.037 52.1543L134.475 52.1267Z" fill="#2B1A01"/>
<path d="M146.949 52.9065L147.806 49.4609H149.565V54.3168H148.374V50.8325L147.505 54.3168H146.281L145.34 50.8823V54.3168H144.227V49.4609H145.98L146.949 52.9065Z" fill="#2B1A01"/>
<path d="M152.643 50.6223C152.637 50.4418 152.68 50.263 152.767 50.1045C152.854 49.946 152.982 49.8135 153.138 49.7208C153.584 49.5119 154.071 49.4036 154.563 49.4036C155.056 49.4036 155.543 49.5119 155.988 49.7208C156.144 49.8135 156.272 49.946 156.36 50.1045C156.447 50.263 156.49 50.4418 156.484 50.6223V53.1498C156.49 53.3312 156.447 53.5109 156.36 53.6704C156.273 53.8299 156.145 53.9633 155.988 54.0569C155.543 54.2658 155.056 54.3741 154.563 54.3741C154.071 54.3741 153.584 54.2658 153.138 54.0569C152.982 53.9633 152.853 53.8299 152.766 53.6704C152.679 53.5109 152.637 53.3312 152.643 53.1498V50.6223ZM153.906 53.1996C153.901 53.2715 153.914 53.3436 153.945 53.4087C153.977 53.4738 154.025 53.5295 154.085 53.5702C154.234 53.6409 154.398 53.6777 154.563 53.6777C154.729 53.6777 154.892 53.6409 155.042 53.5702C155.102 53.5295 155.15 53.4738 155.181 53.4087C155.212 53.3436 155.226 53.2715 155.22 53.1996V50.5781C155.227 50.5053 155.214 50.432 155.183 50.3659C155.151 50.2998 155.103 50.2432 155.042 50.202C154.892 50.1312 154.729 50.0945 154.563 50.0945C154.398 50.0945 154.234 50.1312 154.085 50.202C154.024 50.2432 153.975 50.2998 153.944 50.3659C153.913 50.432 153.9 50.5053 153.906 50.5781V53.1996Z" fill="#2B1A01"/>
<path d="M163.235 52.5028V53.1499C163.242 53.3294 163.202 53.5076 163.118 53.6668C163.034 53.8259 162.909 53.9604 162.757 54.0569C162.321 54.2601 161.846 54.3655 161.365 54.3655C160.884 54.3655 160.409 54.2601 159.974 54.0569C159.821 53.9604 159.697 53.8259 159.613 53.6668C159.529 53.5076 159.488 53.3294 159.495 53.1499V50.6223C159.488 50.4435 159.529 50.266 159.613 50.1077C159.697 49.9495 159.821 49.816 159.974 49.7208C160.409 49.5176 160.884 49.4123 161.365 49.4123C161.846 49.4123 162.321 49.5176 162.757 49.7208C162.909 49.816 163.034 49.9495 163.118 50.1077C163.202 50.266 163.243 50.4435 163.235 50.6223V51.098H162.039V50.5781C162.047 50.5052 162.034 50.4315 162.003 50.3651C161.972 50.2988 161.922 50.2423 161.861 50.202C161.712 50.1321 161.549 50.0958 161.385 50.0958C161.22 50.0958 161.058 50.1321 160.909 50.202C160.848 50.2432 160.799 50.2998 160.768 50.3659C160.737 50.432 160.724 50.5053 160.731 50.5781V53.1996C160.724 53.2708 160.737 53.3424 160.769 53.4068C160.8 53.4711 160.848 53.5257 160.909 53.5647C161.058 53.6346 161.22 53.6708 161.385 53.6708C161.549 53.6708 161.712 53.6346 161.861 53.5647C161.922 53.5266 161.971 53.4722 162.003 53.4076C162.034 53.343 162.047 53.271 162.039 53.1996V52.5028H163.235Z" fill="#2B1A01"/>
<path d="M167.989 52.3811L167.599 52.8235V54.3168H166.336V49.4609H167.599V51.5736L169.269 49.4609H170.511L168.757 51.6234L170.511 54.3168H169.214L167.989 52.3811Z" fill="#2B1A01"/>
<path d="M175.298 49.4609C175.791 49.4252 176.284 49.5206 176.728 49.7374C176.871 49.825 176.987 49.9494 177.065 50.0975C177.142 50.2455 177.178 50.4116 177.168 50.5781V50.7495C177.178 50.9723 177.109 51.1916 176.973 51.369C176.811 51.551 176.594 51.6769 176.355 51.7285C176.634 51.7711 176.891 51.9055 177.084 52.1101C177.227 52.2995 177.302 52.5314 177.296 52.7682V53.1609C177.303 53.3343 177.261 53.5061 177.175 53.6574C177.09 53.8087 176.964 53.9336 176.812 54.0182C176.368 54.2436 175.872 54.3467 175.375 54.3168H173.388V49.4609H175.298ZM174.652 50.1522V51.4353H175.147C175.339 51.4442 175.53 51.4063 175.704 51.3247C175.772 51.2832 175.828 51.2232 175.863 51.1518C175.899 51.0803 175.913 51.0002 175.904 50.921V50.65C175.91 50.5787 175.9 50.5069 175.872 50.4406C175.845 50.3743 175.803 50.3152 175.748 50.2684C175.604 50.1792 175.434 50.1385 175.264 50.1522H174.652ZM174.652 52.1267V53.6476H175.375C175.545 53.6593 175.715 53.6228 175.865 53.5425C175.924 53.5013 175.97 53.4452 176 53.38C176.029 53.3148 176.04 53.2429 176.032 53.172V52.7461C176.043 52.6591 176.032 52.5707 175.998 52.4894C175.965 52.4081 175.912 52.3365 175.843 52.2815C175.649 52.1822 175.431 52.1382 175.214 52.1543L174.652 52.1267Z" fill="#2B1A01"/>
<path d="M181.604 51.5072H183.335V52.1986H181.604V53.6476H183.786V54.3445H180.346V49.4609H183.792V50.1522H181.61L181.604 51.5072Z" fill="#2B1A01"/>
<path d="M76.7306 21.1327L80.5769 12.4109L81.2003 12.5934C81.2559 12.7372 81.3005 12.8865 81.3673 13.0248C81.7458 13.7714 82.1354 14.5125 82.5195 15.237C83.282 14.4959 84.54 13.8544 84.7181 12.9916C85.5475 9.05373 86.8333 7.14011 90.841 4.90571C90.8268 5.07133 90.8268 5.23786 90.841 5.40348C90.9857 6.27732 91.1471 7.14011 91.2974 8.00843C92.2493 7.41111 93.6297 7.03503 94.0806 6.17777C94.8635 4.68539 96.0166 3.4161 97.4308 2.48993C98.8451 1.56377 100.474 1.01135 102.163 0.884909C102.129 1.01211 102.09 1.13379 102.068 1.25546C101.929 2.09613 101.795 2.91467 101.662 3.77193C102.719 3.58941 104.272 3.77193 104.768 3.15249C107.3 -0.0663684 110.818 0.221227 114.364 0C114.336 0.220248 114.286 0.437086 114.214 0.64709C113.824 1.43798 113.418 2.21227 112.995 3.01422C114.069 3.13037 115.488 3.7498 116.162 3.29076C119.591 0.934685 122.791 2.4335 126.766 3.42902C126.405 3.54334 126.06 3.69927 125.736 3.8936C125.146 4.47985 124.584 5.08823 124.01 5.69107C124.979 6.14459 126.098 7.16223 126.888 6.95207C130.84 5.89018 133.506 8.0582 136.573 10.1543C136.313 10.2171 136.059 10.2985 135.811 10.3977C135.081 10.7904 134.352 11.1996 133.629 11.6034C134.391 12.35 135.143 13.7272 135.922 13.7437C140.191 13.8212 141.956 16.9405 144.271 19.8275C141.488 19.3574 141.488 19.3574 140.831 20.9336H219.805C219.883 21.7411 219.933 22.3108 220 22.991C219.523 23.0748 219.042 23.132 218.558 23.1625C204.94 23.1625 191.317 23.1625 177.691 23.1625C164.538 23.1625 151.385 23.1625 138.232 23.1625C137.678 23.212 137.121 23.1023 136.627 22.8464C136.134 22.5905 135.725 22.1992 135.449 21.719C132.646 17.5455 128.851 14.1231 124.4 11.7551C119.948 9.38702 114.978 8.14641 109.928 8.14312C104.879 8.13984 99.9065 9.37399 95.4519 11.7362C90.9972 14.0985 87.1976 17.5159 84.3897 21.6858C83.7496 22.6758 83.1429 23.2289 81.8794 23.2289C55.102 23.192 28.3247 23.192 1.5474 23.2289H0.0612183V21.1327H76.7306Z" fill="#2B1A01"/>
<path d="M0.0556641 63.0774V60.8375H2.143C28.5084 60.8375 54.8794 60.8375 81.256 60.8375C81.9323 60.7883 82.6088 60.9292 83.2083 61.2442C83.8078 61.5591 84.3059 62.0353 84.6458 62.6184C87.4869 66.7226 91.2955 70.0738 95.7394 72.3798C100.183 74.6859 105.127 75.8766 110.141 75.8482C115.154 75.8199 120.084 74.5733 124.501 72.2171C128.918 69.861 132.688 66.4669 135.482 62.3308C136.039 61.4901 136.518 60.832 137.792 60.8375C164.833 60.8854 191.876 60.8965 218.92 60.8707C219.182 60.8707 219.438 60.9205 219.839 60.9536C219.883 61.551 219.928 62.1151 219.989 62.9502H143.108L139.379 71.5947L138.766 71.4343C138.7 71.3015 138.633 71.1633 138.56 71.0305L137.375 68.8183C136.601 69.5594 135.148 70.295 135.148 71.0305C135.109 75.2892 131.981 77.059 129.025 79.3266C129.025 78.9118 129.025 78.7403 129.025 78.5744C128.92 77.7393 128.808 76.9152 128.703 76.0635C127.712 76.5889 126.259 76.8709 125.808 77.6895C124.094 80.8199 121.845 82.551 117.748 83.2202C117.782 83.0321 117.815 82.8773 117.837 82.7169C117.937 81.8817 118.032 81.0577 118.132 80.2059C117.069 80.4272 115.538 80.2889 115.021 80.9415C112.466 84.1438 108.998 83.8396 105.358 84.0442C105.569 83.646 105.647 83.4912 105.731 83.3308L106.888 81.1185C105.82 80.9526 104.378 80.2668 103.749 80.7148C100.331 83.1206 97.0696 81.6771 93.6798 80.7535C93.7778 80.558 93.8953 80.3727 94.0305 80.2004C94.6316 79.6086 95.2439 79.0334 95.8506 78.4527C94.9044 77.9605 93.7856 76.8654 93.0675 77.0756C89.1043 78.2149 86.4159 76.0303 83.3711 73.9784L83.9667 73.6687L86.2377 72.5625C85.503 71.7882 84.7682 70.3503 84.0112 70.3503C79.7141 70.3503 77.9719 67.1701 75.5617 64.3163C76.9143 64.1725 78.4005 65.3339 79.1853 63.1549L0.0556641 63.0774Z" fill="#2B1A01"/>
<path d="M219.866 26.4643H217.746C191.239 26.4643 164.731 26.4643 138.221 26.4643C137.649 26.5243 137.073 26.4044 136.574 26.1216C136.074 25.8388 135.677 25.4073 135.438 24.8881C129.788 15.2647 121.344 10.0161 110.095 9.95522C98.8453 9.89439 90.34 15.0435 84.6347 24.6392C84.3477 25.2443 83.8786 25.746 83.2923 26.0749C82.7061 26.4039 82.0315 26.5438 81.3617 26.4754C55.0557 26.4385 28.7496 26.4293 2.44358 26.4477C1.64204 26.4477 0.834937 26.3537 0.027832 26.3039V25.69C0.812672 25.6181 1.59751 25.4798 2.38235 25.4798C28.488 25.4798 54.5937 25.4964 80.6993 25.5296C82.4471 25.5296 83.3878 25.0595 84.3174 23.5109C95.9174 4.18672 124.149 4.27521 135.71 23.6547C136.003 24.2628 136.475 24.7679 137.064 25.1028C137.652 25.4377 138.33 25.5866 139.006 25.5296C165.178 25.4743 191.349 25.4577 217.517 25.4798C218.319 25.4798 219.121 25.5905 219.928 25.6458L219.866 26.4643Z" fill="#2B1A01"/>
<path d="M219.866 58.5257H217.334C191.228 58.5257 165.124 58.5072 139.022 58.4704C137.43 58.4704 136.529 58.9128 135.683 60.3176C124.205 79.7801 95.7616 79.8022 84.1894 60.3563C83.3656 58.9792 82.5195 58.4648 80.8997 58.4704C54.7273 58.5257 28.5548 58.5423 2.38236 58.5201C1.58639 58.5201 0.790418 58.3929 -0.0055542 58.3266V57.7293C0.590011 57.6374 1.19022 57.5784 1.79234 57.5523C28.5103 57.5523 55.2171 57.5523 81.9128 57.5523C82.4264 57.5053 82.9418 57.6206 83.3856 57.8818C83.8294 58.143 84.1789 58.5367 84.3842 59.0068C90.0228 68.7408 98.4946 74.0226 109.844 74.0614C121.283 74.1001 129.799 68.7906 135.493 59.0068C135.698 58.5293 136.049 58.1282 136.497 57.861C136.945 57.5938 137.467 57.4741 137.987 57.5191C164.705 57.5523 191.412 57.5523 218.108 57.5191C218.713 57.5461 219.317 57.6033 219.917 57.6905L219.866 58.5257Z" fill="#2B1A01"/>
</svg>
