<svg width="28" height="26" viewBox="0 0 28 26" fill="none" xmlns="http://www.w3.org/2000/svg">
<path d="M20.2223 24.9765C19.33 24.9765 18.4068 24.7941 17.5145 24.3685L8.19061 20.0216C7.63679 19.7479 7.206 19.292 6.99058 18.7145C6.8059 18.137 6.83681 17.4984 7.08292 16.9513C7.11363 16.8601 7.20597 16.7689 7.32903 16.7082C8.28293 16.1307 10.1907 15.857 11.2984 16.3435L6.99062 9.5038C6.65217 8.98701 6.55984 8.34862 6.68289 7.77116C6.80594 7.19369 7.206 6.64637 7.72912 6.34235C8.80606 5.70401 10.2831 6.00799 10.9293 7.10229L12.8371 10.1725C12.9909 10.0206 13.1755 9.83817 13.3602 9.74696C14.068 9.32139 14.9295 9.29104 15.6065 9.65574C15.7911 9.29104 16.068 9.0174 16.4373 8.77424C17.1451 8.34867 18.0067 8.31833 18.6836 8.68302C18.8683 8.31833 19.1451 8.04468 19.5145 7.80153C20.0683 7.46718 20.7454 7.37596 21.3606 7.52787C21.9452 7.67978 22.4376 8.04465 22.7453 8.56144L26.1609 14.702C27.8226 17.7116 26.7454 20.9643 24.9299 22.8794C23.6376 24.2168 21.9453 24.9767 20.222 24.9767L20.2223 24.9765ZM8.06767 17.5897C8.00605 17.8328 8.00605 18.0761 8.09839 18.3193C8.19072 18.6233 8.43683 18.836 8.68292 18.9576L18.0068 23.3046C20.5301 24.4901 22.8378 23.3958 24.1613 22.0278C25.669 20.4167 26.6229 17.6809 25.2075 15.1881L21.7612 9.01727C21.6382 8.77414 21.392 8.5917 21.1151 8.53082C20.7766 8.4396 20.4689 8.50048 20.1612 8.65239C19.8227 8.83483 19.638 9.16918 19.6073 9.56442C19.5766 9.80755 19.4536 9.98999 19.2073 10.0812C18.9611 10.1421 18.7458 10.0812 18.5918 9.92929C18.2227 9.50372 17.5763 9.41251 17.0841 9.68616C16.7456 9.86861 16.561 10.2029 16.5303 10.5982C16.4995 10.8413 16.3765 11.0238 16.1302 11.115C15.8841 11.1759 15.6687 11.115 15.5147 10.9631C15.1456 10.5375 14.4992 10.4463 14.007 10.7199C13.73 10.8718 13.5455 11.1455 13.4839 11.4799C13.4223 11.723 13.2378 11.8751 13.0224 11.9358C12.7763 11.9661 12.5609 11.8749 12.4379 11.6621L9.97624 7.74073C9.63779 7.1936 8.93001 7.01113 8.34542 7.37604C8.06841 7.52794 7.88393 7.80161 7.82231 8.10563C7.76069 8.40966 7.79159 8.71363 7.94536 8.98712L13.2685 17.4683C13.3916 17.7115 13.3608 17.9548 13.2069 18.1676C13.0531 18.35 12.7454 18.4412 12.4991 18.2891L10.8374 17.3468C10.1605 17.1032 8.80654 17.225 8.068 17.5897L8.06767 17.5897Z" fill="#FF9B04" stroke="#FF9B04" stroke-width="0.2"/>
<path d="M2.74423 13.0295C2.59046 13.0295 2.4365 12.9383 2.34417 12.7864C2.22111 12.5736 2.31345 12.3 2.52884 12.1784L5.66739 10.4761C5.88278 10.3545 6.15979 10.4458 6.28283 10.6585C6.40589 10.8713 6.31355 11.145 6.09816 11.2665L2.95961 12.9688C2.89818 12.999 2.83657 13.0295 2.74423 13.0295Z" fill="#FF9B04" stroke="#FF9B04" stroke-width="0.3"/>
<path d="M12.8683 7.52749C12.7145 7.52749 12.5605 7.43627 12.4682 7.28436C12.3451 7.07157 12.4375 6.79791 12.6529 6.67636L15.7914 4.97405C16.0068 4.85249 16.2838 4.94371 16.4069 5.1565C16.5299 5.36929 16.4376 5.64295 16.2222 5.7645L13.0836 7.4668C13.0222 7.49714 12.9299 7.52749 12.8683 7.52749Z" fill="#FF9B04" stroke="#FF9B04" stroke-width="0.3"/>
<path d="M10.4989 5.36908C10.4682 5.36908 10.4065 5.36908 10.3758 5.33874C10.1297 5.27786 9.97576 5.00439 10.0681 4.76127L11.0527 1.35667C11.1143 1.11354 11.3912 0.961443 11.6372 1.05266C11.8834 1.11354 12.0373 1.38701 11.945 1.63013L10.9604 5.03473C10.8989 5.24752 10.7143 5.36908 10.4989 5.36908Z" fill="#FF9B04" stroke="#FF9B04" stroke-width="0.3"/>
<path d="M6.99029 5.70373C6.83652 5.70373 6.68256 5.61251 6.59023 5.49094L4.71313 2.48138C4.59008 2.26859 4.65151 1.99493 4.8669 1.84304C5.08229 1.69113 5.35931 1.78216 5.51306 1.99495L7.39015 5.00451C7.5132 5.2173 7.45177 5.49096 7.23638 5.64285C7.14423 5.67339 7.08263 5.70373 6.99029 5.70373Z" fill="#FF9B04" stroke="#FF9B04" stroke-width="0.3"/>
<path d="M4.96006 8.10497H4.837L1.35985 7.28416C1.11375 7.22328 0.959788 6.98015 1.02141 6.73703C1.08303 6.4939 1.32914 6.34181 1.57523 6.40268L5.05238 7.22349C5.29849 7.28437 5.45245 7.5275 5.39083 7.77062C5.36012 7.95287 5.17545 8.10497 4.96006 8.10497Z" fill="#FF9B04" stroke="#FF9B04" stroke-width="0.3"/>
</svg>
