<svg width="166" height="7" viewBox="0 0 166 7" fill="none" xmlns="http://www.w3.org/2000/svg">
<path d="M166 3.5L161 0.613249V6.38675L166 3.5ZM0 4H1.48214V3H0V4ZM4.44643 4H7.41071V3H4.44643V4ZM10.375 4H13.3393V3H10.375V4ZM16.3036 4H19.2679V3H16.3036V4ZM22.2321 4H25.1964V3H22.2321V4ZM28.1607 4H31.125V3H28.1607V4ZM34.0893 4H37.0536V3H34.0893V4ZM40.0179 4H42.9821V3H40.0179V4ZM45.9464 4H48.9107V3H45.9464V4ZM51.875 4H54.8393V3H51.875V4ZM57.8036 4H60.7679V3H57.8036V4ZM63.7322 4H66.6964V3H63.7322V4ZM69.6607 4H72.625V3H69.6607V4ZM75.5893 4H78.5536V3H75.5893V4ZM81.5179 4H84.4822V3H81.5179V4ZM87.4464 4H90.4107V3H87.4464V4ZM93.375 4H96.3393V3H93.375V4ZM99.3036 4H102.268V3H99.3036V4ZM105.232 4H108.196V3H105.232V4ZM111.161 4H114.125V3H111.161V4ZM117.089 4H120.054V3H117.089V4ZM123.018 4H125.982V3H123.018V4ZM128.946 4H131.911V3H128.946V4ZM134.875 4H137.839V3H134.875V4ZM140.804 4H143.768V3H140.804V4ZM146.732 4H149.696V3H146.732V4ZM152.661 4H155.625V3H152.661V4ZM158.589 4H161.554V3H158.589V4Z" fill="#FF9B04"/>
</svg>
