<svg width="16" height="17" viewBox="0 0 16 17" fill="none" xmlns="http://www.w3.org/2000/svg">
<path d="M7.60302 0.802573C6.33186 0.817918 3.59897 1.02681 2.07041 2.42914C0.933395 3.55576 0.536405 5.22144 0.489875 7.28113C0.451265 9.3334 0.404735 13.1875 4.11971 14.2369V15.8352C4.11971 15.8352 4.09645 16.4748 4.51918 16.6059C5.03992 16.7708 5.33642 16.2787 5.83142 15.7501L6.7546 14.7061C9.29642 14.9175 11.2433 14.4304 11.4675 14.3581C11.9833 14.1933 14.8884 13.8221 15.3631 9.9675C15.8502 5.98671 15.126 3.47854 13.8187 2.344H13.8108C13.4163 1.98067 11.8308 0.825343 8.2886 0.812473C8.2886 0.812473 8.02575 0.794653 7.60302 0.802078V0.802573ZM7.64658 1.92177C8.00744 1.91929 8.22673 1.93464 8.22673 1.93464C11.2249 1.94256 12.656 2.84494 12.9936 3.14887C14.0945 4.09234 14.6617 6.3535 14.2464 9.67693C13.8519 12.8994 11.4957 13.1033 11.0596 13.2424C10.874 13.3018 9.1593 13.7245 6.99913 13.5855C6.99913 13.5855 5.39038 15.5268 4.88745 16.0268C4.80776 16.1144 4.7147 16.1401 4.6553 16.1273C4.57016 16.1065 4.54442 16.0011 4.54937 15.8565L4.56472 13.2038C1.41404 12.3326 1.59967 9.04531 1.63333 7.32816C1.67194 5.611 1.99418 4.20619 2.95349 3.2548C4.24494 2.0871 6.56551 1.92969 7.6456 1.92177H7.64658ZM7.88418 3.63843C7.85825 3.63817 7.83253 3.64304 7.80849 3.65277C7.78445 3.6625 7.76257 3.67688 7.74412 3.69511C7.72567 3.71333 7.71101 3.73502 7.70098 3.75894C7.69095 3.78285 7.68575 3.80852 7.68569 3.83445C7.68569 3.94533 7.77578 4.03294 7.88418 4.03294C8.37498 4.02361 8.86277 4.11153 9.31941 4.29164C9.77606 4.47175 10.1925 4.74049 10.5448 5.08234C11.264 5.78079 11.6145 6.71931 11.6279 7.94641C11.6279 8.05482 11.7155 8.14491 11.8264 8.14491V8.13699C11.8786 8.13712 11.9288 8.11659 11.966 8.07987C12.0032 8.04315 12.0243 7.99322 12.0249 7.94097C12.0489 7.36338 11.9552 6.78693 11.7496 6.24666C11.5439 5.7064 11.2305 5.2136 10.8284 4.79821C10.0449 4.03245 9.05189 3.63793 7.88418 3.63793V3.63843ZM5.27504 4.09234C5.13493 4.07187 4.99203 4.1 4.87013 4.17204H4.85974C4.57673 4.33793 4.32178 4.5476 4.10437 4.79326C3.92369 5.00215 3.82568 5.21352 3.79994 5.41696C3.7846 5.53824 3.79499 5.65951 3.83113 5.77534L3.844 5.78326C4.04744 6.38122 4.31326 6.95641 4.63798 7.49794C5.05626 8.25873 5.57103 8.96234 6.16951 9.5913L6.18733 9.61704L6.21554 9.63783L6.23336 9.65862L6.25415 9.67644C6.88539 10.2767 7.59069 10.7938 8.35295 11.2154C9.22415 11.6896 9.75281 11.9138 10.0701 12.0069V12.0118C10.1632 12.0401 10.2478 12.0529 10.3329 12.0529C10.6034 12.0331 10.8594 11.9233 11.0601 11.7411C11.3046 11.5236 11.512 11.2676 11.6739 10.9832V10.9783C11.8259 10.6922 11.7744 10.4214 11.5551 10.2383C11.1159 9.85439 10.6411 9.51343 10.1369 9.22005C9.79934 9.0369 9.4563 9.14778 9.31721 9.3334L9.0207 9.70713C8.86874 9.89275 8.59253 9.86701 8.59253 9.86701L8.58461 9.87196C6.52491 9.34578 5.97546 7.26034 5.97546 7.26034C5.97546 7.26034 5.94973 6.97671 6.1403 6.83217L6.51155 6.53319C6.68926 6.38865 6.813 6.04611 6.62243 5.70802C6.33107 5.2032 5.99086 4.7282 5.60669 4.28985C5.5227 4.18651 5.40488 4.1162 5.27405 4.09135L5.27504 4.09234ZM8.22673 4.6804C7.96388 4.6804 7.96388 5.07739 8.2292 5.07739C8.55604 5.08269 8.87863 5.15235 9.17853 5.28239C9.47844 5.41242 9.74978 5.60029 9.97704 5.83524C10.1844 6.06393 10.3437 6.33191 10.4455 6.6233C10.5474 6.91468 10.5897 7.22355 10.5701 7.5316C10.571 7.58373 10.5922 7.63344 10.6293 7.67008C10.6664 7.70672 10.7164 7.72737 10.7685 7.72762L10.7765 7.73802C10.829 7.73763 10.8793 7.71659 10.9164 7.67945C10.9535 7.64231 10.9746 7.59205 10.975 7.53952C10.9928 6.75297 10.7483 6.09313 10.2686 5.56447C9.78647 5.03581 9.11376 4.73931 8.25494 4.6804H8.22673ZM8.55194 5.74762C8.28117 5.7397 8.27078 6.14461 8.53907 6.15253C9.19148 6.18619 9.50828 6.51586 9.54986 7.19401C9.55077 7.24549 9.57178 7.29457 9.60842 7.33074C9.64506 7.36691 9.6944 7.38731 9.74588 7.38756H9.7538C9.78027 7.38642 9.80625 7.38003 9.83022 7.36874C9.85419 7.35746 9.87567 7.34151 9.89341 7.32184C9.91115 7.30216 9.92479 7.27915 9.93355 7.25414C9.9423 7.22914 9.94598 7.20264 9.94437 7.17619C9.89784 6.29212 9.41571 5.79415 8.55986 5.74812H8.55194V5.74762Z" fill="#222222"/>
</svg>
