<svg width="16" height="16" viewBox="0 0 16 16" fill="none" xmlns="http://www.w3.org/2000/svg">
<path d="M0.078125 6.53438C0.03125 6.90938 0 7.29063 0 7.67812C0 11.0844 1.86563 14.05 4.62813 15.6219L5.14375 14.5344V7.10625L4.57188 6.53438H0.078125ZM16 7.10625C16 6.53437 15.4281 5.9625 14.8562 5.9625H10.2844C10.5688 4.81875 10.8562 3.67812 10.8562 3.10625C10.8562 1.9625 10.2844 0.821875 10 0.534375C9.99375 0.528125 9.71562 0.25 9.14375 0.25C8.2875 0.25 8.2875 1.10625 8.2875 1.10625C8.2875 1.12188 8.00313 2.53438 8.00313 3.10625C8.00313 3.67812 6.85938 5.9625 6.2875 6.53438L5.71562 6.81875V14.8188L6.2875 15.1031H12.5719C13.7156 15.1031 14.2875 14.5312 14.2875 13.9594C14.2875 13.3875 13.7156 12.8156 13.1438 12.8156C14.2875 12.8156 14.8594 12.2437 14.8594 11.6719C14.8594 11.1 14.2875 10.5281 13.7156 10.5281C14.8594 10.5281 15.4312 9.95625 15.4312 9.38437C15.4312 8.8125 14.8594 8.24063 14.2875 8.24063C15.4281 8.25 16 7.67812 16 7.10625Z" fill="#CCCCCC"/>
</svg>
