<svg width="14" height="14" viewBox="0 0 14 14" fill="none" xmlns="http://www.w3.org/2000/svg">
<path d="M11.6531 2.3205C11.048 1.70929 10.3273 1.22468 9.53295 0.894931C8.73861 0.565184 7.88656 0.396902 7.0265 0.399898C3.42291 0.399898 0.485906 3.3369 0.485906 6.9405C0.485906 8.0955 0.789506 9.2175 1.35711 10.2075L0.433105 13.5999L3.89811 12.6891C4.85511 13.2105 5.9309 13.4877 7.0265 13.4877C10.6301 13.4877 13.5671 10.5507 13.5671 6.9471C13.5671 5.1981 12.8873 3.5547 11.6531 2.3205ZM7.0265 12.3789C6.04971 12.3789 5.09271 12.1149 4.25451 11.6199L4.05651 11.5011L1.99731 12.0423L2.54511 10.0359L2.41311 9.8313C1.87042 8.9647 1.58226 7.963 1.58151 6.9405C1.58151 3.9441 4.0235 1.5021 7.0199 1.5021C8.4719 1.5021 9.83811 2.0697 10.8611 3.0993C11.3676 3.60351 11.7691 4.20325 12.0421 4.86376C12.3151 5.52426 12.4544 6.23239 12.4517 6.9471C12.4649 9.9435 10.0229 12.3789 7.0265 12.3789ZM10.0097 8.3133C9.8447 8.2341 9.03951 7.8381 8.89431 7.7787C8.74251 7.7259 8.63691 7.6995 8.5247 7.8579C8.41251 8.0229 8.1023 8.3925 8.0099 8.4981C7.9175 8.6103 7.8185 8.6235 7.6535 8.5377C7.4885 8.4585 6.96051 8.2803 6.34011 7.7259C5.85171 7.2903 5.52831 6.7557 5.42931 6.5907C5.33691 6.4257 5.4161 6.3399 5.5019 6.2541C5.5745 6.1815 5.66691 6.0627 5.74611 5.9703C5.82531 5.8779 5.85831 5.8053 5.91111 5.6997C5.96391 5.5875 5.93751 5.4951 5.8979 5.4159C5.8583 5.3367 5.52831 4.5315 5.39631 4.2015C5.26431 3.8847 5.12571 3.9243 5.02671 3.9177H4.70991C4.5977 3.9177 4.42611 3.9573 4.27431 4.1223C4.12911 4.2873 3.70671 4.6833 3.70671 5.4885C3.70671 6.2937 4.29411 7.0725 4.37331 7.1781C4.45251 7.2903 5.52831 8.9403 7.1651 9.6465C7.5545 9.8181 7.8581 9.9171 8.09571 9.9897C8.4851 10.1151 8.84151 10.0953 9.12531 10.0557C9.44211 10.0095 10.0955 9.6597 10.2275 9.2769C10.3661 8.8941 10.3661 8.5707 10.3199 8.4981C10.2737 8.4255 10.1747 8.3925 10.0097 8.3133Z" fill="#222222"/>
</svg>
